<svg width="397" height="560" viewBox="0 0 397 560" fill="none" xmlns="http://www.w3.org/2000/svg">
<g clip-path="url(#clip0_134_615)">
<path d="M322.251 30.0126C222.279 -41.6346 103.247 37.5204 103.247 37.5204C5.01169 -20.2664 -97.7273 0.2792 -153.278 55.7384C-208.813 111.215 -208.075 201.168 -182.067 262.07C-161.163 311.001 -33.5077 532.768 103.754 531.683C235.867 530.633 342.495 352.898 378.447 262.07C400.351 206.751 422.224 101.66 322.251 30.0126ZM213.21 264.31C198.516 301.446 154.909 374.126 100.895 374.546C44.7762 374.983 -7.42334 284.313 -15.9696 264.31C-26.6062 239.407 -26.9136 202.621 -4.19545 179.94C18.5073 157.259 60.5159 148.859 100.695 172.485C100.695 172.485 149.36 140.126 190.246 169.422C231.102 198.718 222.172 241.682 213.21 264.31Z" fill="#E76044"/>
<path d="M309.555 58.3118C209.583 -13.3354 90.5507 65.8196 90.5507 65.8196C-7.68464 8.03275 -110.424 28.5784 -165.974 84.0551C-221.509 139.532 -220.771 229.485 -194.764 290.387C-173.859 339.318 -46.2041 561.085 91.0579 560C223.171 558.95 329.798 381.214 365.751 290.387C387.654 235.05 409.527 129.959 309.555 58.3118ZM200.514 292.609C185.819 329.745 142.212 402.425 88.1989 402.845C32.0798 403.283 -20.1197 312.612 -28.6659 292.609C-39.3026 267.706 -39.61 230.92 -16.8918 208.239C5.81097 185.558 47.8196 177.158 87.9991 200.784C87.9991 200.784 136.663 168.425 177.55 197.721C218.406 227.017 209.475 269.981 200.514 292.609Z" fill="#E2583C"/>
</g>
<defs>
<clipPath id="clip0_134_615">
<rect width="620" height="560" fill="white" transform="translate(-223)"/>
</clipPath>
</defs>
</svg>
