<svg width="179" height="148" viewBox="0 0 179 148" fill="none" xmlns="http://www.w3.org/2000/svg">
<g clip-path="url(#clip0_22_2)">
<path d="M157.419 7.9319C128.556 -11.0034 94.1907 9.91608 94.1907 9.91608C65.8292 -5.35614 36.1675 0.0737753 20.1295 14.7309C4.09603 29.3926 4.30905 53.1658 11.8177 69.2613C17.853 82.1932 54.7083 140.803 94.3371 140.516C132.479 140.239 163.264 93.2658 173.644 69.2613C179.967 54.6412 186.282 26.8672 157.419 7.9319ZM125.938 69.8533C121.696 79.6679 109.106 98.8761 93.5117 98.9871C77.3096 99.1028 62.2391 75.1399 59.7717 69.8533C56.7008 63.2718 56.6121 53.5497 63.171 47.5555C69.7255 41.5613 81.8538 39.3413 93.454 45.5852C93.454 45.5852 107.504 37.0333 119.308 44.7758C131.104 52.5183 128.525 63.873 125.938 69.8533Z" fill="white"/>
<path d="M153.754 15.411C124.891 -3.52436 90.5251 17.3952 90.5251 17.3952C62.1636 2.12294 32.5019 7.55286 16.4639 22.2146C0.430445 36.8763 0.643457 60.6495 8.15208 76.745C14.1874 89.6769 51.0427 148.287 90.6716 148C128.814 147.723 159.598 100.75 169.978 76.745C176.302 62.1203 182.617 34.3463 153.754 15.411ZM122.273 77.3324C118.03 87.147 105.44 106.355 89.8461 106.466C73.644 106.582 58.5735 82.619 56.1061 77.3324C53.0352 70.7508 52.9465 61.0288 59.5054 55.0346C66.0599 49.0404 78.1882 46.8203 89.7884 53.0643C89.7884 53.0643 103.838 44.5124 115.643 52.2549C127.438 59.9974 124.86 71.3521 122.273 77.3324Z" fill="#F1863A"/>
</g>
<defs>
<clipPath id="clip0_22_2">
<rect width="179" height="148" fill="white"/>
</clipPath>
</defs>
</svg>
