<?xml version="1.0" encoding="UTF-8"?>
<svg id="Layer_7" data-name="Layer 7" xmlns="http://www.w3.org/2000/svg" viewBox="0 0 83.46 132.64">
  <polygon points="74.84 124.01 8.62 124.01 8.62 8.62 74.84 8.62 74.84 115 74.84 124.01" fill="none" stroke="#f1863a" stroke-linecap="round" stroke-miterlimit="10" stroke-width="17.25"/>
  <polyline points="4.48 10.17 4.9 17.13 12.23 17.43 12.65 23.58 4.69 23.98 4.69 30.94 12.34 30.23 12.55 36.49 4.69 37.19 4.69 44.05 12.34 44.05 12.65 49.8 4.69 50.4 4.58 58.27 12.13 58.27 12.76 64.42 4.69 63.92 4.9 70.77 12.55 71.18 12.65 77.53 4.37 78.44 4.69 84.49 12.34 84.79 12.55 91.65 4.27 91.14 4.69 97.39 12.55 97.7 12.76 104.55 4.69 104.05 4.48 110.2 12.55 110.5 12.86 115.95 5 115.65 4.37 120.79 12.44 120.79 12.76 127.24 20.09 127.34 19.57 121.19 25.75 120.79 26.48 126.84 33.71 127.14 33.5 120.69 40.63 120.39 41.15 127.34 48.17 127.04 48.7 120.99 55.82 120.49 56.97 127.04 64.52 127.24 64.73 121.09 71.54 120.69 72.27 127.45 79.71 127.45" fill="none" stroke="#dd5539" stroke-miterlimit="10" stroke-width=".49"/>
  <polyline points="79.48 127.22 79.48 121.19 71.43 121.46 71.43 114.51 79.56 114.37 79.48 106.75 71.43 107.11 71.58 99.76 79.48 99.99 79.57 92.86 71.43 93.22 71.58 85.64 79.48 85.64 79.8 79.74 71.58 79.8 71.58 73.95 79.71 73.8 79.71 67.41 71.47 67.5 71.38 61.19 79.71 61.01 79.62 55.53 71.38 55.8 71.47 50.59 79.62 49.95 79.52 44.11 71.29 44.56 71.38 38.81 79.71 38.35 79.71 32.04 71.38 32.41 71.57 26.29 79.71 26.1 79.62 20.62 71.57 20.35 71.57 13.58 79.43 13.04 79.62 6.09 71.29 6.27 64.08 12.85 64.08 6.27 57.62 6 57.43 13.22 50.13 13.04 49.95 6.09 42.64 6 42.64 13.13 36.28 13.13 36.09 6.36 29.82 6 30.2 13.04 24.02 12.94 22.61 5.91 16.25 5.91 16.53 12.94 11.57 13.04 11.57 6.09 4.64 6 4.83 12.94" fill="none" stroke="#dd5539" stroke-miterlimit="10" stroke-width=".49"/>
</svg>