<?xml version="1.0" encoding="UTF-8"?>
<svg id="frame" xmlns="http://www.w3.org/2000/svg" viewBox="0 0 72.43 113.73">
  <line x1="67.12" y1="111.28" x2="70.33" y2="108.13" fill="none" stroke="#fff" stroke-linecap="round" stroke-linejoin="round"/>
  <line x1="3.01" y1="4.6" x2="6.27" y2="1.78" fill="none" stroke="#fff" stroke-linecap="round" stroke-linejoin="round"/>
  <polygon points="65.43 103.85 10.18 103.85 10.18 7 65.43 7 65.43 96.28 65.43 103.85" fill="none" stroke="#fff" stroke-linecap="round" stroke-linejoin="round" stroke-width="14"/>
  <g>
    <polygon points="62.52 106.73 7 106.73 7 9.78 62.52 9.78 62.52 99.15 62.52 106.73" fill="none" stroke="#f1863a" stroke-linecap="round" stroke-linejoin="round" stroke-width="14"/>
    <polyline points="3.52 11.07 3.88 16.92 10.03 17.17 10.38 22.34 3.7 22.68 3.7 28.53 10.11 27.93 10.29 33.19 3.7 33.78 3.7 39.54 10.11 39.54 10.38 44.37 3.7 44.88 3.61 51.49 9.94 51.49 10.47 56.66 3.7 56.23 3.88 62 10.29 62.33 10.38 67.67 3.44 68.43 3.7 73.52 10.11 73.77 10.29 79.53 3.35 79.11 3.7 84.36 10.29 84.62 10.47 90.38 3.7 89.96 3.52 95.12 10.29 95.38 10.55 99.95 3.96 99.7 3.44 104.02 10.2 104.02 10.47 109.44 16.62 109.53 16.18 104.36 21.36 104.02 21.97 109.1 28.04 109.36 27.86 103.94 33.84 103.68 34.27 109.53 40.16 109.27 40.6 104.19 46.57 103.77 47.54 109.27 53.87 109.44 54.04 104.27 59.75 103.94 60.37 109.61 66.61 109.61" fill="none" stroke="#dd5539" stroke-linecap="round" stroke-linejoin="round" stroke-width=".49"/>
    <polyline points="66.41 109.42 66.41 104.35 59.66 104.58 59.66 98.75 66.48 98.62 66.41 92.22 59.66 92.53 59.79 86.35 66.41 86.54 66.49 80.55 59.66 80.86 59.79 74.49 66.41 74.49 66.69 69.53 59.79 69.58 59.79 64.67 66.61 64.54 66.61 59.17 59.7 59.24 59.62 53.95 66.61 53.79 66.53 49.19 59.62 49.42 59.7 45.04 66.53 44.5 66.45 39.59 59.54 39.97 59.62 35.14 66.61 34.75 66.61 29.45 59.62 29.76 59.78 24.62 66.61 24.46 66.53 19.86 59.78 19.63 59.78 13.94 66.37 13.48 66.53 7.65 59.54 7.8 53.5 13.33 53.5 7.8 48.08 7.57 47.93 13.64 41.81 13.48 41.65 7.65 35.53 7.57 35.53 13.56 30.19 13.56 30.03 7.88 24.77 7.57 25.09 13.48 19.91 13.41 18.73 7.49 13.39 7.49 13.63 13.41 9.47 13.48 9.47 7.65 3.66 7.57 3.82 13.41" fill="none" stroke="#dd5539" stroke-linecap="round" stroke-linejoin="round" stroke-width=".49"/>
  </g>
</svg>