<svg width="264" height="92" viewBox="0 0 264 92" fill="none" xmlns="http://www.w3.org/2000/svg">
<path d="M102.626 86.7326C102.626 88.524 102.432 90.276 102.062 92H0.563877C0.193833 90.276 0 88.524 0 86.7326C0 73.39 10.6373 61.7714 26.373 55.7122V55.7065C33.7621 52.8594 42.2673 51.2365 51.3128 51.2365C79.6535 51.2365 102.626 67.1286 102.626 86.7326Z" fill="white"/>
<path d="M154.402 51.2365C154.402 67.8699 144.488 82.6444 129.116 92H51.4068C37.4215 83.4868 27.9706 70.5036 26.3789 55.7121V55.7065C26.1968 54.2296 26.1204 52.7471 26.1204 51.2365C26.1204 22.9452 54.8429 0 90.2614 0C117.457 0 140.705 13.5279 150.026 32.6153C152.852 38.3881 154.402 44.6663 154.402 51.2365Z" fill="white"/>
<path d="M264 74.6535C264 80.7801 262.115 86.6315 258.678 92H114.044C110.59 86.6315 108.705 80.7801 108.705 74.6535C108.705 56.4253 125.445 40.6006 150.026 32.6209C160.852 29.0943 173.222 27.0952 186.344 27.0952C229.233 27.0952 264 48.3894 264 74.6535Z" fill="white"/>
</svg>
