<svg width="170" height="279" viewBox="0 0 170 279" fill="none" xmlns="http://www.w3.org/2000/svg">
<path d="M84.1225 275.39C130.582 275.39 168.245 265.581 168.245 253.48C168.245 241.379 130.582 231.57 84.1225 231.57C37.6629 231.57 0 241.379 0 253.48C0 265.581 37.6629 275.39 84.1225 275.39Z" fill="#85D3DD"/>
<path d="M140.514 146.788C116.727 69.5792 44.1643 39.8799 34.1421 35.9625C34.1131 72.9044 34.1711 109.846 34.3162 146.788C34.4467 182.09 34.6498 217.392 34.9399 252.706C69.082 252.968 103.224 253.218 137.381 253.48C143.008 237.742 155.612 195.778 140.514 146.788ZM40.2628 88.9497C40.1903 82.2993 40.1322 75.6375 40.0887 68.987C40.0452 62.0291 40.0307 55.0598 40.0452 48.1019C47.3987 50.4022 56.5216 54.0691 65.6591 59.9907C75.8843 66.6184 81.8454 73.2916 84.9347 76.7876C89.1119 81.5249 92.0416 85.8409 94.0287 89.0978C76.1019 89.0522 58.1751 88.9953 40.2628 88.9497Z" fill="#F1863A"/>
<path d="M108.707 105.883H40.2918C40.2048 102.729 40.1323 99.5973 40.0308 96.4657H101.527C103.891 99.3696 106.299 102.513 108.707 105.883Z" fill="white"/>
<path d="M118.511 121.132H40.6399C40.5964 118.865 40.5529 116.599 40.4948 114.333C40.4658 113.035 40.4368 111.748 40.3933 110.461H111.868C114.131 113.832 116.35 117.385 118.511 121.132Z" fill="white"/>
<path d="M40.93 139.284C40.872 134.694 40.7994 130.128 40.7269 125.573H120.962C123.283 129.9 125.488 134.478 127.518 139.284H40.93Z" fill="white"/>
<path d="M41.0894 157.686C41.0749 153.336 41.0314 148.997 40.9879 144.67H129.679C131.26 148.849 132.71 153.188 133.987 157.686C134.059 157.914 134.117 158.142 134.19 158.381H41.0894C41.0894 158.142 41.0894 157.914 41.0894 157.686Z" fill="white"/>
<path d="M41.0895 177.478C41.104 172.934 41.1185 168.357 41.104 163.767H135.655C136.67 167.696 137.7 172.285 138.483 177.478H41.0895Z" fill="white"/>
<path d="M41.7131 221.059H137.033C135.901 226.149 134.552 230.739 133.16 234.77H41.7131V221.059Z" fill="white"/>
<path d="M41.7131 201.962H139.672C139.513 204.752 139.252 207.644 138.86 210.605C138.643 212.336 138.381 214.021 138.091 215.661H41.7131V201.962Z" fill="white"/>
<path d="M139.846 196.575H40.9445C41.0025 192.032 41.046 187.454 41.075 182.865H139.194C139.643 187.101 139.904 191.69 139.846 196.575Z" fill="white"/>
<path d="M35.0848 0H30.197V252.728H35.0848V0Z" fill="#DD5539"/>
</svg>
