<svg width="854" height="317" viewBox="0 0 854 317" fill="none" xmlns="http://www.w3.org/2000/svg">
<path d="M75.0235 312.667L75.7049 192.491L91.3596 190.732V312.667H75.0235Z" fill="#DD5539" stroke="#DD5539" stroke-width="1.01" stroke-miterlimit="10"/>
<path d="M754.499 163.145H776.286V312.002H754.499V163.145Z" fill="#DD5539" stroke="#DD5539" stroke-width="1.28" stroke-miterlimit="10"/>
<path d="M808.661 186.055L806.215 180.628L851.589 180.349L848.863 186.055H808.661Z" fill="#DD5539" stroke="#DD5539" stroke-width="2.76" stroke-linecap="round" stroke-linejoin="round"/>
<path d="M813.483 186.077H844.775V311.98H813.483V186.077Z" fill="#F1863A" stroke="#DD5539" stroke-width="2.34" stroke-miterlimit="10"/>
<path d="M821.205 167.714H816.453V180.628H839.656V167.714H821.205ZM831.129 180.349H825.329V176.853C825.329 174.986 826.569 173.463 828.089 173.463C829.767 173.463 831.129 175.136 831.129 177.196V180.349Z" fill="#F1863A" stroke="#DD5539" stroke-width="2.76" stroke-miterlimit="10"/>
<mask id="mask0_138_702" style="mask-type:luminance" maskUnits="userSpaceOnUse" x="823" y="204" width="17" height="90">
<path d="M823.11 204.032H839.638V293.896H823.11V204.032Z" fill="white"/>
</mask>
<g mask="url(#mask0_138_702)">
<path d="M823.11 204.032H837.262V220.551H823.11V204.032Z" fill="#DD5539"/>
<path d="M823.11 226.686H837.262V243.204H823.11V226.686Z" fill="#DD5539"/>
<path d="M823.11 249.34H837.262V265.858H823.11V249.34Z" fill="#DD5539"/>
<path d="M823.11 271.972H837.262V288.49H823.11V271.972Z" fill="#DD5539"/>
</g>
<path d="M843.5 168.894H814.828C816.366 165.097 817.886 161.299 819.423 157.502H838.922C840.459 161.299 841.979 165.097 843.517 168.894H843.5Z" fill="#DD5539"/>
<path d="M817.432 156.408H840.652V157.481H817.432V156.408Z" fill="#DD5539"/>
<mask id="mask1_138_702" style="mask-type:luminance" maskUnits="userSpaceOnUse" x="817" y="133" width="13" height="24">
<path d="M817.222 133.884H829.312V156.58H817.222V133.884Z" fill="white"/>
</mask>
<g mask="url(#mask1_138_702)">
<path d="M825.12 145.318C824.805 148.321 824.665 150.037 823.774 150.874C821.66 152.847 817.572 149.372 817.24 150.059C816.786 151.003 821.66 157.524 826.168 156.473C826.657 156.366 827.216 156.215 827.741 155.701C829.226 154.199 828.719 151.324 828.684 146.262C828.684 144.631 828.684 142.25 828.929 139.333C829.505 134.956 829.47 133.948 829.313 133.905C829.068 133.841 828.614 136.179 827.042 139.032C826.395 140.212 825.749 141.092 825.294 141.692C825.294 142.572 825.277 143.838 825.12 145.361V145.318Z" fill="#DD5539"/>
</g>
<mask id="mask2_138_702" style="mask-type:luminance" maskUnits="userSpaceOnUse" x="829" y="133" width="13" height="24">
<path d="M829.313 133.884H841.403V156.58H829.313V133.884Z" fill="white"/>
</mask>
<g mask="url(#mask2_138_702)">
<path d="M833.506 145.318C833.82 148.321 833.96 150.037 834.851 150.874C836.965 152.848 841.053 149.372 841.385 150.059C841.84 151.003 836.965 157.524 832.457 156.473C831.968 156.366 831.409 156.216 830.885 155.701C829.4 154.199 829.906 151.325 829.941 146.262C829.941 144.631 829.941 142.25 829.697 139.333C829.12 134.957 829.155 133.948 829.312 133.905C829.557 133.841 830.011 136.179 831.584 139.032C832.23 140.212 832.877 141.092 833.331 141.693C833.331 142.572 833.348 143.838 833.506 145.361V145.318Z" fill="#DD5539"/>
</g>
<path d="M768.633 163.595L765.383 156.237L825.731 155.851L822.097 163.595H768.633Z" fill="#DD5539" stroke="#DD5539" stroke-width="3.7" stroke-linecap="round" stroke-linejoin="round"/>
<path d="M775.045 163.616H816.663V312.002H775.045V163.616Z" fill="#F1863A" stroke="#DD5539" stroke-width="2.93" stroke-miterlimit="10"/>
<path d="M785.319 138.775H779.011V156.237H809.866V138.775H785.319ZM798.51 155.851H790.805V151.067C790.805 148.578 792.447 146.54 794.491 146.54C796.71 146.54 798.527 148.75 798.527 151.496V155.851H798.51Z" fill="#F1863A" stroke="#DD5539" stroke-width="3.7" stroke-miterlimit="10"/>
<mask id="mask3_138_702" style="mask-type:luminance" maskUnits="userSpaceOnUse" x="779" y="181" width="35" height="113">
<path d="M779.78 181.701H813.431V293.875H779.78V181.701Z" fill="white"/>
</mask>
<g mask="url(#mask3_138_702)">
<path d="M779.78 181.701H793.932V198.219H779.78V181.701Z" fill="#DD5539"/>
<path d="M797.549 181.701H811.701V198.219H797.549V181.701Z" fill="#DD5539"/>
<path d="M779.78 204.333H793.932V220.851H779.78V204.333Z" fill="#DD5539"/>
<path d="M797.549 204.333H811.701V220.851H797.549V204.333Z" fill="#DD5539"/>
<path d="M779.78 226.986H793.932V243.505H779.78V226.986Z" fill="#DD5539"/>
<path d="M797.549 226.986H811.701V243.505H797.549V226.986Z" fill="#DD5539"/>
<path d="M779.78 249.64H793.932V266.158H779.78V249.64Z" fill="#DD5539"/>
<path d="M797.549 249.64H811.701V266.158H797.549V249.64Z" fill="#DD5539"/>
<path d="M779.78 272.293H793.932V288.812H779.78V272.293Z" fill="#DD5539"/>
<path d="M797.549 272.293H811.701V288.812H797.549V272.293Z" fill="#DD5539"/>
</g>
<path d="M816.191 138.002H772.826C775.133 132.489 777.456 126.954 779.763 121.441H809.255C811.561 126.954 813.885 132.489 816.191 138.002Z" fill="#DD5539"/>
<path d="M776.775 119.875H811.893V121.441H776.775V119.875Z" fill="#DD5539"/>
<mask id="mask4_138_702" style="mask-type:luminance" maskUnits="userSpaceOnUse" x="776" y="87" width="19" height="34">
<path d="M776.46 87.1392H794.753V120.133H776.46V87.1392Z" fill="white"/>
</mask>
<g mask="url(#mask4_138_702)">
<path d="M788.412 103.764C787.94 108.119 787.713 110.629 786.368 111.83C783.17 114.705 777.003 109.642 776.496 110.629C775.797 112.002 783.188 121.484 790.002 119.961C790.753 119.789 791.592 119.596 792.378 118.824C794.614 116.657 793.863 112.474 793.793 105.094C793.776 102.713 793.811 99.2594 794.16 95.0119C795.034 88.662 794.981 87.1818 794.754 87.1174C794.387 87.0102 793.688 90.4425 791.312 94.5614C790.316 96.2776 789.355 97.5647 788.674 98.4228C788.674 99.6885 788.639 101.533 788.412 103.743V103.764Z" fill="#DD5539"/>
</g>
<mask id="mask5_138_702" style="mask-type:luminance" maskUnits="userSpaceOnUse" x="794" y="87" width="20" height="34">
<path d="M794.753 87.1392H813.046V120.133H794.753V87.1392Z" fill="white"/>
</mask>
<g mask="url(#mask5_138_702)">
<path d="M801.078 103.764C801.55 108.119 801.777 110.629 803.122 111.83C806.32 114.705 812.487 109.642 812.994 110.629C813.693 112.002 806.302 121.484 799.488 119.961C798.737 119.789 797.898 119.596 797.112 118.824C794.876 116.657 795.627 112.474 795.697 105.094C795.714 102.713 795.679 99.2592 795.33 95.0116C794.456 88.6618 794.509 87.1816 794.736 87.1172C795.103 87.0099 795.802 90.4423 798.178 94.5611C799.174 96.2773 800.135 97.5644 800.816 98.4225C800.816 99.6882 800.851 101.533 801.078 103.743V103.764Z" fill="#DD5539"/>
</g>
<path d="M4.57759 209.417L2.27132 204.311L45.1469 204.032L42.5611 209.417H4.57759Z" fill="#DD5539" stroke="#DD5539" stroke-width="2.6" stroke-linecap="round" stroke-linejoin="round"/>
<path d="M9.13771 209.417H38.6999V312.366H9.13771V209.417Z" fill="#F1863A" stroke="#DD5539" stroke-width="2.06" stroke-miterlimit="10"/>
<path d="M16.4234 192.191H11.9332V204.311H33.8602V192.191H16.4234ZM25.8057 204.032H20.3196V200.772C20.3196 198.991 21.4902 197.554 22.9404 197.554C24.5303 197.554 25.8057 199.12 25.8057 201.072V204.011V204.032Z" fill="#F1863A" stroke="#DD5539" stroke-width="2.6" stroke-miterlimit="10"/>
<mask id="mask6_138_702" style="mask-type:luminance" maskUnits="userSpaceOnUse" x="15" y="225" width="18" height="91">
<path d="M15.6547 225.571H32.1829V315.434H15.6547V225.571Z" fill="white"/>
</mask>
<g mask="url(#mask6_138_702)">
<path d="M15.6547 225.571H29.8067V242.089H15.6547V225.571Z" fill="#DD5539"/>
<path d="M15.6547 248.203H29.8067V264.721H15.6547V248.203Z" fill="#DD5539"/>
<path d="M15.6547 270.856H29.8067V287.374H15.6547V270.856Z" fill="#DD5539"/>
<path d="M15.6547 293.51H29.8067V310.028H15.6547V293.51Z" fill="#DD5539"/>
</g>
<path d="M37.8263 191.311H8.0894C9.67933 187.557 11.2693 183.781 12.8417 180.027H33.0565C34.6464 183.781 36.2363 187.557 37.8088 191.311H37.8263Z" fill="#DD5539"/>
<path d="M10.7801 178.955H34.8735V180.027H10.7801V178.955Z" fill="#DD5539"/>
<mask id="mask7_138_702" style="mask-type:luminance" maskUnits="userSpaceOnUse" x="10" y="156" width="14" height="24">
<path d="M10.5704 156.644H23.1151V179.126H10.5704V156.644Z" fill="white"/>
</mask>
<g mask="url(#mask7_138_702)">
<path d="M18.7817 167.971C18.4497 170.931 18.31 172.648 17.384 173.484C15.2 175.458 10.9544 171.983 10.6049 172.669C10.1332 173.613 15.2 180.07 19.865 179.019C20.3716 178.912 20.9482 178.761 21.4898 178.247C23.0273 176.766 22.5032 173.913 22.4682 168.893C22.4682 167.284 22.4857 164.925 22.7128 162.029C23.3069 157.695 23.2719 156.709 23.1147 156.666C22.8526 156.601 22.3809 158.918 20.756 161.728C20.0746 162.887 19.4107 163.788 18.939 164.346C18.939 165.204 18.9215 166.469 18.7468 167.971H18.7817Z" fill="#DD5539"/>
</g>
<mask id="mask8_138_702" style="mask-type:luminance" maskUnits="userSpaceOnUse" x="23" y="156" width="13" height="24">
<path d="M23.1151 156.644H35.6598V179.126H23.1151V156.644Z" fill="white"/>
</mask>
<g mask="url(#mask8_138_702)">
<path d="M27.4481 167.971C27.78 170.932 27.9198 172.648 28.8458 173.485C31.0298 175.458 35.2754 171.983 35.6248 172.669C36.0966 173.613 31.0298 180.071 26.3648 179.019C25.8581 178.912 25.2816 178.762 24.74 178.247C23.2024 176.767 23.7266 173.914 23.7615 168.894C23.7615 167.285 23.7441 164.925 23.5169 162.029C22.9229 157.696 22.9578 156.709 23.1151 156.666C23.3772 156.602 23.8489 158.919 25.4738 161.729C26.1552 162.887 26.8191 163.788 27.2908 164.346C27.2908 165.204 27.3083 166.47 27.483 167.971H27.4481Z" fill="#DD5539"/>
</g>
<path d="M33.8252 189.917L31.0123 183.846L83.2003 183.524L80.0554 189.917H33.8252Z" fill="#DD5539" stroke="#DD5539" stroke-width="3.13" stroke-linecap="round" stroke-linejoin="round"/>
<path d="M39.3638 189.938H75.3555V312.238H39.3638V189.938Z" fill="#F1863A" stroke="#DD5539" stroke-width="2.48" stroke-miterlimit="10"/>
<path d="M48.2394 169.451H42.7882V183.846H69.4675V169.451H48.2394ZM59.6484 183.524H52.9742V179.749C52.9742 177.582 54.4069 175.844 56.1541 175.844C58.076 175.844 59.6484 177.753 59.6484 180.135V183.524Z" fill="#F1863A" stroke="#DD5539" stroke-width="3.13" stroke-miterlimit="10"/>
<mask id="mask9_138_702" style="mask-type:luminance" maskUnits="userSpaceOnUse" x="50" y="202" width="19" height="113">
<path d="M50.5107 202.767H68.8036V314.94H50.5107V202.767Z" fill="white"/>
</mask>
<g mask="url(#mask9_138_702)">
<path d="M50.5107 202.767H64.6628V219.285H50.5107V202.767Z" fill="#DD5539"/>
<path d="M50.5107 225.42H64.6628V241.938H50.5107V225.42Z" fill="#DD5539"/>
<path d="M50.5107 248.074H64.6628V264.592H50.5107V248.074Z" fill="#DD5539"/>
<path d="M50.5107 270.727H64.6628V287.246H50.5107V270.727Z" fill="#DD5539"/>
<path d="M50.5107 293.359H64.6628V309.878H50.5107V293.359Z" fill="#DD5539"/>
</g>
<path d="M78.0112 169.237H34.6464C36.9527 163.724 39.2764 158.189 41.5827 152.676H71.0749C73.3812 158.189 75.7049 163.724 78.0112 169.237Z" fill="#DD5539"/>
<path d="M38.5776 151.11H73.6957V152.676H38.5776V151.11Z" fill="#DD5539"/>
<mask id="mask10_138_702" style="mask-type:luminance" maskUnits="userSpaceOnUse" x="38" y="118" width="19" height="34">
<path d="M38.2631 118.352H56.5559V151.346H38.2631V118.352Z" fill="white"/>
</mask>
<g mask="url(#mask10_138_702)">
<path d="M50.2306 134.978C49.7589 139.332 49.5317 141.842 48.1864 143.044C44.9891 145.918 38.8216 140.855 38.3149 141.842C37.616 143.215 45.0066 152.697 51.8205 151.174C52.5718 151.002 53.4105 150.809 54.1967 150.037C56.4331 147.87 55.6818 143.687 55.6119 136.308C55.5944 133.926 55.6294 130.473 55.9788 126.225C56.8524 119.875 56.8 118.395 56.5728 118.331C56.2059 118.223 55.5071 121.656 53.1309 125.775C52.135 127.491 51.1741 128.778 50.4927 129.636C50.4927 130.902 50.4577 132.746 50.2306 134.956V134.978Z" fill="#DD5539"/>
</g>
<mask id="mask11_138_702" style="mask-type:luminance" maskUnits="userSpaceOnUse" x="56" y="118" width="19" height="34">
<path d="M56.5559 118.352H74.8488V151.346H56.5559V118.352Z" fill="white"/>
</mask>
<g mask="url(#mask11_138_702)">
<path d="M62.8807 134.977C63.3524 139.332 63.5796 141.842 64.9249 143.043C68.1222 145.918 74.2897 140.855 74.7964 141.842C75.4953 143.215 68.1047 152.697 61.2908 151.173C60.5395 151.002 59.7008 150.809 58.9146 150.037C56.6782 147.87 57.4295 143.687 57.4994 136.307C57.5169 133.926 57.4819 130.472 57.1325 126.225C56.2589 119.875 56.3113 118.394 56.5385 118.33C56.9054 118.223 57.6042 121.655 59.9804 125.774C60.9763 127.49 61.9372 128.777 62.6186 129.635C62.6186 130.901 62.6536 132.746 62.8807 134.956V134.977Z" fill="#DD5539"/>
</g>
<path d="M155.638 138.539L152.388 131.181L212.736 130.794L209.101 138.539H155.638Z" fill="#DD5539" stroke="#DD5539" stroke-width="3.7" stroke-linecap="round" stroke-linejoin="round"/>
<path d="M162.05 138.56H203.668V312.366H162.05V138.56Z" fill="#F1863A" stroke="#DD5539" stroke-width="3.18" stroke-miterlimit="10"/>
<path d="M172.306 113.719H165.999V131.181H196.854V113.719H172.306ZM185.515 130.795H177.81V126.011C177.81 123.522 179.452 121.484 181.496 121.484C183.715 121.484 185.532 123.694 185.532 126.44V130.795H185.515Z" fill="#F1863A" stroke="#DD5539" stroke-width="3.7" stroke-miterlimit="10"/>
<path d="M195.91 160.935H168.654C171.415 157.867 174.193 154.821 176.954 151.753H187.629C190.389 154.821 193.167 157.867 195.928 160.935H195.91Z" fill="#DD5539"/>
<path d="M168.654 162.758H195.91V170.717H168.654V162.758Z" fill="#DD5539"/>
<path d="M168.654 172.562H195.91V180.521H168.654V172.562Z" fill="#DD5539"/>
<path d="M168.654 182.344H195.91V190.303H168.654V182.344Z" fill="#DD5539"/>
<path d="M168.654 191.848H195.91V199.806H168.654V191.848Z" fill="#DD5539"/>
<path d="M168.654 201.329H195.91V209.288H168.654V201.329Z" fill="#DD5539"/>
<path d="M168.654 211.133H195.91V219.092H168.654V211.133Z" fill="#DD5539"/>
<path d="M168.654 220.915H195.91V228.874H168.654V220.915Z" fill="#DD5539"/>
<path d="M168.654 230.719H195.91V238.678H168.654V230.719Z" fill="#DD5539"/>
<path d="M168.654 240.201H195.91V248.16H168.654V240.201Z" fill="#DD5539"/>
<path d="M168.654 249.683H195.91V257.642H168.654V249.683Z" fill="#DD5539"/>
<path d="M168.654 258.864H195.91V266.823H168.654V258.864Z" fill="#DD5539"/>
<path d="M168.654 268.668H195.91V276.627H168.654V268.668Z" fill="#DD5539"/>
<path d="M168.654 278.45H195.91V286.409H168.654V278.45Z" fill="#DD5539"/>
<path d="M168.654 287.932H195.91V295.891H168.654V287.932Z" fill="#DD5539"/>
<path d="M168.654 297.436H195.91V305.394H168.654V297.436Z" fill="#DD5539"/>
<path d="M203.109 113.954H159.744C162.05 108.441 164.374 102.907 166.68 97.3933H196.172C198.479 102.907 200.802 108.441 203.109 113.954Z" fill="#DD5539"/>
<path d="M163.693 95.8271H198.811V97.3932H163.693V95.8271Z" fill="#DD5539"/>
<mask id="mask12_138_702" style="mask-type:luminance" maskUnits="userSpaceOnUse" x="163" y="63" width="19" height="34">
<path d="M163.378 63.0696H181.671V96.0631H163.378V63.0696Z" fill="white"/>
</mask>
<g mask="url(#mask12_138_702)">
<path d="M175.329 79.6948C174.857 84.0496 174.63 86.5595 173.285 87.7609C170.088 90.6355 163.92 85.5727 163.413 86.5595C162.715 87.9325 170.105 97.4144 176.919 95.8913C177.67 95.7196 178.509 95.5266 179.295 94.7543C181.532 92.5876 180.78 88.4044 180.71 81.0248C180.693 78.6436 180.728 75.1898 181.077 70.9423C181.951 64.5924 181.898 63.1122 181.671 63.0479C181.304 62.9406 180.606 66.373 178.229 70.4918C177.234 72.208 176.273 73.4951 175.591 74.3532C175.591 75.6189 175.556 77.4638 175.329 79.6734V79.6948Z" fill="#DD5539"/>
</g>
<mask id="mask13_138_702" style="mask-type:luminance" maskUnits="userSpaceOnUse" x="181" y="63" width="19" height="34">
<path d="M181.671 63.0696H199.964V96.0631H181.671V63.0696Z" fill="white"/>
</mask>
<g mask="url(#mask13_138_702)">
<path d="M187.996 79.6946C188.467 84.0494 188.695 86.5593 190.04 87.7606C193.237 90.6352 199.405 85.5725 199.911 86.5593C200.61 87.9322 193.22 97.4141 186.406 95.891C185.654 95.7194 184.816 95.5263 184.03 94.754C181.793 92.5874 182.544 88.4042 182.614 81.0246C182.632 78.6434 182.597 75.1896 182.247 70.942C181.374 64.5922 181.426 63.112 181.653 63.0476C182.02 62.9404 182.719 66.3727 185.095 70.4915C186.091 72.2077 187.052 73.4949 187.734 74.353C187.734 75.6186 187.769 77.4635 187.996 79.6731V79.6946Z" fill="#DD5539"/>
</g>
<path d="M365.229 111.766V312.366H489.557V111.766H365.229ZM474.357 248.996C474.357 261.181 474.602 267.66 474.602 279.587C446.21 279.587 419.251 279.695 391.786 279.695C387.068 279.695 383.539 279.931 379.381 279.931C379.381 269.784 378.996 259.787 378.996 248.567C378.996 244.642 385.356 242.904 387.732 240.48C382.805 235.717 378.822 230.183 376.69 224.09C374.559 217.998 374.366 211.369 376.725 205.341C379.259 198.863 384.552 193.435 390.039 188.458C401.483 178.032 414.254 168.701 427.341 161.257C431.744 164.174 436.146 167.092 440.549 170.009C449.6 175.994 458.72 182.044 466.075 189.531C473.431 197.018 478.987 206.156 479.668 215.917C480.35 225.678 475.475 235.996 465.831 241.231C468.731 243.397 472.942 246.015 474.34 249.018L474.357 248.996Z" fill="#F1863A" stroke="#DD5539" stroke-width="3.56" stroke-miterlimit="10"/>
<path d="M425.698 234.838L407.755 250.713L382.141 264.335H469.255L441.93 250.262L425.698 234.838Z" fill="#DD5539" stroke="#DD5539" stroke-width="6.16" stroke-linecap="round" stroke-linejoin="round"/>
<path d="M369.981 273.13H484.77V310.371H369.981V273.13Z" fill="#F1863A" stroke="#DD5539" stroke-width="6.16" stroke-linecap="round" stroke-linejoin="round"/>
<path d="M380.936 266.008H470.443V271.435H380.936V266.008Z" fill="#F1863A" stroke="#DD5539" stroke-width="0.74" stroke-miterlimit="10"/>
<path d="M383.329 283.599H396.486V299.903H383.329V283.599Z" fill="#DD5539"/>
<path d="M405.833 283.599H418.989V299.903H405.833V283.599Z" fill="#DD5539"/>
<path d="M431.656 283.599H444.812V299.903H431.656V283.599Z" fill="#DD5539"/>
<path d="M456.606 283.599H469.762V299.903H456.606V283.599Z" fill="#DD5539"/>
<path d="M396.259 110.844C394.843 106.982 393.411 103.142 391.995 99.281H461.55C459.908 103.142 458.248 106.982 456.606 110.844H396.259Z" fill="#F1863A" stroke="#DD5539" stroke-width="2.34" stroke-miterlimit="10"/>
<path d="M142.185 170.159H162.033V191.118H142.185V170.159Z" fill="#DD5539" stroke="#DD5539" stroke-width="1.01" stroke-miterlimit="10"/>
<path d="M693.959 168.915V142.529L714.733 140.212L715.659 166.941L693.959 168.915Z" fill="#F1863A" stroke="#DD5539" stroke-width="1.15" stroke-miterlimit="10"/>
<path d="M120.747 191.118V172.669L142.185 170.159V191.118H120.747Z" fill="#F1863A" stroke="#DD5539" stroke-width="1.04" stroke-miterlimit="10"/>
<path d="M716.078 166.941L715.187 140.212H738.39V164.818L716.078 166.941Z" fill="#DD5539" stroke="#DD5539" stroke-width="1.04" stroke-miterlimit="10"/>
<path d="M485.05 76.0912L481.8 68.7331L542.147 68.3469L538.513 76.0912H485.05Z" fill="#DD5539" stroke="#DD5539" stroke-width="3.7" stroke-linecap="round" stroke-linejoin="round"/>
<path d="M491.462 76.0911H533.08V312.366H491.462V76.0911Z" fill="#F1863A" stroke="#DD5539" stroke-width="3.7" stroke-miterlimit="10"/>
<path d="M525.689 95.4411H498.433C501.194 92.3734 503.972 89.3272 506.732 86.2595H517.407C520.168 89.3272 522.946 92.3734 525.706 95.4411H525.689Z" fill="#DD5539"/>
<path d="M501.718 51.271H495.411V68.7331H526.266V51.271H501.718ZM514.909 68.347H507.204V63.5631C507.204 61.0747 508.846 59.0367 510.89 59.0367C513.109 59.0367 514.926 61.2463 514.926 63.9922V68.347H514.909Z" fill="#F1863A" stroke="#DD5539" stroke-width="3.7" stroke-miterlimit="10"/>
<path d="M498.416 97.2644H525.671V105.223H498.416V97.2644Z" fill="#DD5539"/>
<path d="M498.416 107.068H525.671V115.027H498.416V107.068Z" fill="#DD5539"/>
<path d="M498.416 116.85H525.671V124.809H498.416V116.85Z" fill="#DD5539"/>
<path d="M498.416 126.354H525.671V134.313H498.416V126.354Z" fill="#DD5539"/>
<path d="M498.416 135.836H525.671V143.794H498.416V135.836Z" fill="#DD5539"/>
<path d="M498.416 145.618H525.671V153.577H498.416V145.618Z" fill="#DD5539"/>
<path d="M498.416 155.421H525.671V163.38H498.416V155.421Z" fill="#DD5539"/>
<path d="M498.416 165.225H525.671V173.184H498.416V165.225Z" fill="#DD5539"/>
<path d="M498.416 174.707H525.671V182.666H498.416V174.707Z" fill="#DD5539"/>
<path d="M498.416 184.189H525.671V192.148H498.416V184.189Z" fill="#DD5539"/>
<path d="M498.416 193.371H525.671V201.329H498.416V193.371Z" fill="#DD5539"/>
<path d="M498.416 203.174H525.671V211.133H498.416V203.174Z" fill="#DD5539"/>
<path d="M498.416 212.957H525.671V220.915H498.416V212.957Z" fill="#DD5539"/>
<path d="M498.416 222.438H525.671V230.397H498.416V222.438Z" fill="#DD5539"/>
<path d="M498.416 231.942H525.671V239.9H498.416V231.942Z" fill="#DD5539"/>
<path d="M498.416 241.724H525.671V249.683H498.416V241.724Z" fill="#DD5539"/>
<path d="M498.416 251.528H525.671V259.486H498.416V251.528Z" fill="#DD5539"/>
<path d="M498.416 261.31H525.671V269.269H498.416V261.31Z" fill="#DD5539"/>
<path d="M498.416 270.813H525.671V278.772H498.416V270.813Z" fill="#DD5539"/>
<path d="M498.416 280.295H525.671V288.254H498.416V280.295Z" fill="#DD5539"/>
<path d="M498.416 289.477H525.671V297.435H498.416V289.477Z" fill="#DD5539"/>
<path d="M498.416 298.958H525.671V305.995H498.416V298.958Z" fill="#DD5539"/>
<path d="M532.52 50.8846H489.156C491.462 45.3714 493.786 39.8367 496.092 34.3235H525.584C527.89 39.8367 530.214 45.3714 532.52 50.8846Z" fill="#DD5539"/>
<path d="M493.087 32.7361H528.205V34.3021H493.087V32.7361Z" fill="#DD5539"/>
<mask id="mask14_138_702" style="mask-type:luminance" maskUnits="userSpaceOnUse" x="492" y="0" width="20" height="33">
<path d="M492.79 0H511.083V32.9936H492.79V0Z" fill="white"/>
</mask>
<g mask="url(#mask14_138_702)">
<path d="M504.741 16.6252C504.269 20.98 504.042 23.4899 502.697 24.6913C499.499 27.5659 493.332 22.5031 492.825 23.4899C492.126 24.8629 499.517 34.3448 506.331 32.8217C507.082 32.6501 507.921 32.457 508.707 31.6847C510.943 29.518 510.192 25.3348 510.122 17.9553C510.105 15.5741 510.14 12.1203 510.489 7.87271C511.363 1.52284 511.31 0.0426346 511.083 -0.0217221C510.716 -0.128983 510.017 3.30338 507.641 7.42221C506.645 9.13839 505.684 10.4255 505.003 11.2836C505.003 12.5493 504.968 14.3942 504.741 16.6038V16.6252Z" fill="#DD5539"/>
</g>
<mask id="mask15_138_702" style="mask-type:luminance" maskUnits="userSpaceOnUse" x="511" y="0" width="19" height="33">
<path d="M511.065 0H529.358V32.9936H511.065V0Z" fill="white"/>
</mask>
<g mask="url(#mask15_138_702)">
<path d="M517.407 16.625C517.879 20.9798 518.106 23.4897 519.452 24.691C522.649 27.5656 528.816 22.5029 529.323 23.4897C530.022 24.8626 522.631 34.3445 515.818 32.8214C515.066 32.6498 514.228 32.4567 513.441 31.6845C511.205 29.5178 511.956 25.3346 512.026 17.955C512.044 15.5738 512.009 12.12 511.659 7.87246C510.786 1.5226 510.838 0.0423905 511.065 -0.0219663C511.432 -0.129228 512.131 3.30313 514.507 7.42197C515.503 9.13815 516.464 10.4253 517.145 11.2834C517.145 12.5491 517.18 14.3939 517.407 16.6035V16.625Z" fill="#DD5539"/>
</g>
<path d="M315.347 101.297L312.097 93.9394L372.445 93.5532L368.81 101.297H315.347Z" fill="#DD5539" stroke="#DD5539" stroke-width="3.7" stroke-linecap="round" stroke-linejoin="round"/>
<path d="M321.759 101.319H363.377V312.388H321.759V101.319Z" fill="#F1863A" stroke="#DD5539" stroke-width="3.5" stroke-miterlimit="10"/>
<path d="M332.032 76.4773H325.725V93.9394H356.58V76.4773H332.032ZM345.224 93.5533H337.519V88.7694C337.519 86.281 339.161 84.243 341.205 84.243C343.424 84.243 345.241 86.4526 345.241 89.1985V93.5533H345.224Z" fill="#F1863A" stroke="#DD5539" stroke-width="3.7" stroke-miterlimit="10"/>
<path d="M362.818 76.3058H319.453C321.759 70.7925 324.083 65.2579 326.389 59.7446H355.881C358.188 65.2579 360.511 70.7925 362.818 76.3058Z" fill="#DD5539"/>
<path d="M323.401 58.1785H358.52V59.7445H323.401V58.1785Z" fill="#DD5539"/>
<mask id="mask16_138_702" style="mask-type:luminance" maskUnits="userSpaceOnUse" x="323" y="25" width="19" height="34">
<path d="M323.087 25.4424H341.38V58.4359H323.087V25.4424Z" fill="white"/>
</mask>
<g mask="url(#mask16_138_702)">
<path d="M335.055 42.0679C334.583 46.4227 334.356 48.9326 333.01 50.1339C329.813 53.0085 323.645 47.9458 323.139 48.9326C322.44 50.3055 329.83 59.7874 336.644 58.2643C337.396 58.0927 338.234 57.8996 339.021 57.1273C341.257 54.9607 340.506 50.7775 340.436 43.3979C340.418 41.0167 340.453 37.5629 340.803 33.3153C341.676 26.9655 341.624 25.4853 341.397 25.4209C341.03 25.3136 340.331 28.746 337.955 32.8648C336.959 34.581 335.998 35.8682 335.317 36.7262C335.317 37.9919 335.282 39.8368 335.055 42.0464V42.0679Z" fill="#DD5539"/>
</g>
<mask id="mask17_138_702" style="mask-type:luminance" maskUnits="userSpaceOnUse" x="341" y="25" width="19" height="34">
<path d="M341.38 25.4424H359.673V58.4359H341.38V25.4424Z" fill="white"/>
</mask>
<g mask="url(#mask17_138_702)">
<path d="M347.705 42.0674C348.176 46.4222 348.403 48.9321 349.749 50.1334C352.946 53.008 359.114 47.9453 359.62 48.9321C360.319 50.305 352.929 59.7869 346.115 58.2638C345.363 58.0922 344.525 57.8991 343.739 57.1268C341.502 54.9602 342.253 50.777 342.323 43.3974C342.341 41.0162 342.306 37.5624 341.956 33.3148C341.083 26.965 341.135 25.4848 341.362 25.4204C341.729 25.3132 342.428 28.7455 344.804 32.8643C345.8 34.5805 346.761 35.8677 347.443 36.7258C347.443 37.9914 347.477 39.8363 347.705 42.0459V42.0674Z" fill="#DD5539"/>
</g>
<path d="M355.811 121.763H328.556C331.316 118.695 334.094 115.649 336.855 112.581H347.53C350.29 115.649 353.068 118.695 355.829 121.763H355.811Z" fill="#DD5539"/>
<path d="M328.556 123.586H355.811V131.545H328.556V123.586Z" fill="#DD5539"/>
<path d="M328.556 133.39H355.811V141.349H328.556V133.39Z" fill="#DD5539"/>
<path d="M328.556 143.172H355.811V151.131H328.556V143.172Z" fill="#DD5539"/>
<path d="M328.556 152.676H355.811V160.634H328.556V152.676Z" fill="#DD5539"/>
<path d="M328.556 162.157H355.811V170.116H328.556V162.157Z" fill="#DD5539"/>
<path d="M328.556 171.94H355.811V179.898H328.556V171.94Z" fill="#DD5539"/>
<path d="M328.556 181.743H355.811V189.702H328.556V181.743Z" fill="#DD5539"/>
<path d="M328.556 191.526H355.811V199.484H328.556V191.526Z" fill="#DD5539"/>
<path d="M328.556 201.029H355.811V208.988H328.556V201.029Z" fill="#DD5539"/>
<path d="M328.556 210.511H355.811V218.47H328.556V210.511Z" fill="#DD5539"/>
<path d="M328.556 219.692H355.811V227.651H328.556V219.692Z" fill="#DD5539"/>
<path d="M328.556 229.496H355.811V237.455H328.556V229.496Z" fill="#DD5539"/>
<path d="M328.556 239.278H355.811V247.237H328.556V239.278Z" fill="#DD5539"/>
<path d="M328.556 248.76H355.811V256.719H328.556V248.76Z" fill="#DD5539"/>
<path d="M328.556 258.264H355.811V266.222H328.556V258.264Z" fill="#DD5539"/>
<path d="M328.556 268.046H355.811V276.005H328.556V268.046Z" fill="#DD5539"/>
<path d="M328.556 277.85H355.811V285.808H328.556V277.85Z" fill="#DD5539"/>
<path d="M328.556 287.632H355.811V295.591H328.556V287.632Z" fill="#DD5539"/>
<path d="M328.556 297.114H355.811V305.073H328.556V297.114Z" fill="#DD5539"/>
<path d="M645.667 113.332L642.417 105.974L702.765 105.588L699.131 113.332H645.667Z" fill="#DD5539" stroke="#DD5539" stroke-width="3.7" stroke-linecap="round" stroke-linejoin="round"/>
<path d="M652.079 113.354H693.697V313.353H652.079V113.354Z" fill="#F1863A" stroke="#DD5539" stroke-width="3.41" stroke-miterlimit="10"/>
<path d="M662.335 88.512H656.028V105.974H686.883V88.512H662.335ZM675.544 105.588H667.839V100.804C667.839 98.3157 669.481 96.2777 671.525 96.2777C673.744 96.2777 675.561 98.4873 675.561 101.233V105.588H675.544Z" fill="#F1863A" stroke="#DD5539" stroke-width="3.7" stroke-miterlimit="10"/>
<path d="M693.138 88.9195H649.773C652.079 83.4063 654.403 77.8716 656.709 72.3584H686.202C688.508 77.8716 690.832 83.4063 693.138 88.9195Z" fill="#DD5539"/>
<path d="M653.704 70.7925H688.822V72.3585H653.704V70.7925Z" fill="#DD5539"/>
<mask id="mask18_138_702" style="mask-type:luminance" maskUnits="userSpaceOnUse" x="653" y="38" width="19" height="34">
<path d="M653.407 38.0349H671.7V71.0285H653.407V38.0349Z" fill="white"/>
</mask>
<g mask="url(#mask18_138_702)">
<path d="M665.359 54.6601C664.887 59.0149 664.66 61.5249 663.314 62.7262C660.117 65.6008 653.95 60.5381 653.443 61.5249C652.744 62.8978 660.135 72.3797 666.949 70.8566C667.7 70.685 668.538 70.4919 669.325 69.7196C671.561 67.5529 670.81 63.3698 670.74 55.9902C670.722 53.609 670.757 50.1552 671.107 45.9076C671.98 39.5578 671.928 38.0775 671.701 38.0132C671.334 37.9059 670.635 41.3383 668.259 45.4571C667.263 47.1733 666.302 48.4604 665.621 49.3185C665.621 50.5842 665.586 52.4291 665.359 54.6387V54.6601Z" fill="#DD5539"/>
</g>
<mask id="mask19_138_702" style="mask-type:luminance" maskUnits="userSpaceOnUse" x="671" y="38" width="19" height="34">
<path d="M671.683 38.0349H689.976V71.0285H671.683V38.0349Z" fill="white"/>
</mask>
<g mask="url(#mask19_138_702)">
<path d="M678.025 54.6599C678.497 59.0147 678.724 61.5246 680.069 62.7259C683.266 65.6005 689.434 60.5378 689.941 61.5246C690.639 62.8976 683.249 72.3795 676.435 70.8563C675.684 70.6847 674.845 70.4917 674.059 69.7194C671.822 67.5527 672.574 63.3695 672.644 55.9899C672.661 53.6087 672.626 50.1549 672.277 45.9074C671.403 39.5575 671.456 38.0773 671.683 38.0129C672.05 37.9057 672.748 41.338 675.125 45.4569C676.12 47.1731 677.081 48.4602 677.763 49.3183C677.763 50.584 677.798 52.4289 678.025 54.6384V54.6599Z" fill="#DD5539"/>
</g>
<path d="M686.638 133.991H659.383C662.143 130.923 664.921 127.877 667.682 124.809H678.357C681.117 127.877 683.895 130.923 686.656 133.991H686.638Z" fill="#DD5539"/>
<path d="M659.365 135.836H686.621V143.794H659.365V135.836Z" fill="#DD5539"/>
<path d="M659.365 145.618H686.621V153.577H659.365V145.618Z" fill="#DD5539"/>
<path d="M659.365 155.422H686.621V163.38H659.365V155.422Z" fill="#DD5539"/>
<path d="M659.365 164.904H686.621V172.862H659.365V164.904Z" fill="#DD5539"/>
<path d="M659.365 174.407H686.621V182.366H659.365V174.407Z" fill="#DD5539"/>
<path d="M659.365 184.189H686.621V192.148H659.365V184.189Z" fill="#DD5539"/>
<path d="M659.365 193.993H686.621V201.951H659.365V193.993Z" fill="#DD5539"/>
<path d="M659.365 203.775H686.621V211.734H659.365V203.775Z" fill="#DD5539"/>
<path d="M659.365 213.257H686.621V221.216H659.365V213.257Z" fill="#DD5539"/>
<path d="M659.365 222.76H686.621V230.719H659.365V222.76Z" fill="#DD5539"/>
<path d="M659.365 231.942H686.621V239.901H659.365V231.942Z" fill="#DD5539"/>
<path d="M659.365 241.724H686.621V249.683H659.365V241.724Z" fill="#DD5539"/>
<path d="M659.365 251.528H686.621V259.487H659.365V251.528Z" fill="#DD5539"/>
<path d="M659.365 261.01H686.621V268.968H659.365V261.01Z" fill="#DD5539"/>
<path d="M659.365 270.491H686.621V278.45H659.365V270.491Z" fill="#DD5539"/>
<path d="M659.365 280.295H686.621V288.254H659.365V280.295Z" fill="#DD5539"/>
<path d="M659.365 290.077H686.621V298.036H659.365V290.077Z" fill="#DD5539"/>
<path d="M659.365 299.881H686.621V307.84H659.365V299.881Z" fill="#DD5539"/>
<path d="M533.08 115.263H651.049V312.366H533.08V115.263Z" fill="#F1863A" stroke="#DD5539" stroke-width="3.44" stroke-miterlimit="10"/>
<mask id="mask20_138_702" style="mask-type:luminance" maskUnits="userSpaceOnUse" x="540" y="137" width="105" height="156">
<path d="M540.418 137.144H644.776V292.716H540.418V137.144Z" fill="white"/>
</mask>
<g mask="url(#mask20_138_702)">
<path d="M540.418 137.144H554.57V153.663H540.418V137.144Z" fill="#DD5539"/>
<path d="M558.169 137.144H572.321V153.663H558.169V137.144Z" fill="#DD5539"/>
<path d="M575.938 137.144H590.09V153.663H575.938V137.144Z" fill="#DD5539"/>
<path d="M593.706 137.144H607.858V153.663H593.706V137.144Z" fill="#DD5539"/>
<path d="M611.458 137.144H625.61V153.663H611.458V137.144Z" fill="#DD5539"/>
<path d="M629.226 137.144H643.378V153.663H629.226V137.144Z" fill="#DD5539"/>
<path d="M540.418 159.776H554.57V176.295H540.418V159.776Z" fill="#DD5539"/>
<path d="M558.169 159.776H572.321V176.295H558.169V159.776Z" fill="#DD5539"/>
<path d="M575.938 159.776H590.09V176.295H575.938V159.776Z" fill="#DD5539"/>
<path d="M593.706 159.776H607.858V176.295H593.706V159.776Z" fill="#DD5539"/>
<path d="M611.458 159.776H625.61V176.295H611.458V159.776Z" fill="#DD5539"/>
<path d="M629.226 159.776H643.378V176.295H629.226V159.776Z" fill="#DD5539"/>
<path d="M540.418 182.43H554.57V198.948H540.418V182.43Z" fill="#DD5539"/>
<path d="M558.169 182.43H572.321V198.948H558.169V182.43Z" fill="#DD5539"/>
<path d="M575.938 182.43H590.09V198.948H575.938V182.43Z" fill="#DD5539"/>
<path d="M593.706 182.43H607.858V198.948H593.706V182.43Z" fill="#DD5539"/>
<path d="M611.458 182.43H625.61V198.948H611.458V182.43Z" fill="#DD5539"/>
<path d="M629.226 182.43H643.378V198.948H629.226V182.43Z" fill="#DD5539"/>
<path d="M540.418 205.083H554.57V221.602H540.418V205.083Z" fill="#DD5539"/>
<path d="M558.169 205.083H572.321V221.602H558.169V205.083Z" fill="#DD5539"/>
<path d="M575.938 205.083H590.09V221.602H575.938V205.083Z" fill="#DD5539"/>
<path d="M593.706 205.083H607.858V221.602H593.706V205.083Z" fill="#DD5539"/>
<path d="M611.458 205.083H625.61V221.602H611.458V205.083Z" fill="#DD5539"/>
<path d="M629.226 205.083H643.378V221.602H629.226V205.083Z" fill="#DD5539"/>
<path d="M540.418 227.737H554.57V244.255H540.418V227.737Z" fill="#DD5539"/>
<path d="M558.169 227.737H572.321V244.255H558.169V227.737Z" fill="#DD5539"/>
<path d="M575.938 227.737H590.09V244.255H575.938V227.737Z" fill="#DD5539"/>
<path d="M593.706 227.737H607.858V244.255H593.706V227.737Z" fill="#DD5539"/>
<path d="M611.458 227.737H625.61V244.255H611.458V227.737Z" fill="#DD5539"/>
<path d="M629.226 227.737H643.378V244.255H629.226V227.737Z" fill="#DD5539"/>
<path d="M540.418 250.369H554.57V266.888H540.418V250.369Z" fill="#DD5539"/>
<path d="M558.169 250.369H572.321V266.888H558.169V250.369Z" fill="#DD5539"/>
<path d="M575.938 250.369H590.09V266.888H575.938V250.369Z" fill="#DD5539"/>
<path d="M593.706 250.369H607.858V266.888H593.706V250.369Z" fill="#DD5539"/>
<path d="M611.458 250.369H625.61V266.888H611.458V250.369Z" fill="#DD5539"/>
<path d="M629.226 250.369H643.378V266.888H629.226V250.369Z" fill="#DD5539"/>
<path d="M540.418 273.023H554.57V289.541H540.418V273.023Z" fill="#DD5539"/>
<path d="M558.169 273.023H572.321V289.541H558.169V273.023Z" fill="#DD5539"/>
<path d="M575.938 273.023H590.09V289.541H575.938V273.023Z" fill="#DD5539"/>
<path d="M593.706 273.023H607.858V289.541H593.706V273.023Z" fill="#DD5539"/>
<path d="M611.458 273.023H625.61V289.541H611.458V273.023Z" fill="#DD5539"/>
<path d="M629.226 273.023H643.378V289.541H629.226V273.023Z" fill="#DD5539"/>
</g>
<path d="M203.79 139.011H321.759V312.366H203.79V139.011Z" fill="#F1863A" stroke="#DD5539" stroke-width="3.22" stroke-miterlimit="10"/>
<mask id="mask21_138_702" style="mask-type:luminance" maskUnits="userSpaceOnUse" x="211" y="159" width="105" height="135">
<path d="M211.128 159.669H315.487V293.596H211.128V159.669Z" fill="white"/>
</mask>
<g mask="url(#mask21_138_702)">
<path d="M211.128 159.669H225.28V176.187H211.128V159.669Z" fill="#DD5539"/>
<path d="M228.879 159.669H243.032V176.187H228.879V159.669Z" fill="#DD5539"/>
<path d="M246.648 159.669H260.8V176.187H246.648V159.669Z" fill="#DD5539"/>
<path d="M264.417 159.669H278.569V176.187H264.417V159.669Z" fill="#DD5539"/>
<path d="M282.168 159.669H296.32V176.187H282.168V159.669Z" fill="#DD5539"/>
<path d="M299.937 159.669H314.089V176.187H299.937V159.669Z" fill="#DD5539"/>
<path d="M211.128 182.301H225.28V198.819H211.128V182.301Z" fill="#DD5539"/>
<path d="M228.879 182.301H243.032V198.819H228.879V182.301Z" fill="#DD5539"/>
<path d="M246.648 182.301H260.8V198.819H246.648V182.301Z" fill="#DD5539"/>
<path d="M264.417 182.301H278.569V198.819H264.417V182.301Z" fill="#DD5539"/>
<path d="M282.168 182.301H296.32V198.819H282.168V182.301Z" fill="#DD5539"/>
<path d="M299.937 182.301H314.089V198.819H299.937V182.301Z" fill="#DD5539"/>
<path d="M211.128 204.955H225.28V221.473H211.128V204.955Z" fill="#DD5539"/>
<path d="M228.879 204.955H243.032V221.473H228.879V204.955Z" fill="#DD5539"/>
<path d="M246.648 204.955H260.8V221.473H246.648V204.955Z" fill="#DD5539"/>
<path d="M264.417 204.955H278.569V221.473H264.417V204.955Z" fill="#DD5539"/>
<path d="M282.168 204.955H296.32V221.473H282.168V204.955Z" fill="#DD5539"/>
<path d="M299.937 204.955H314.089V221.473H299.937V204.955Z" fill="#DD5539"/>
<path d="M211.128 227.608H225.28V244.127H211.128V227.608Z" fill="#DD5539"/>
<path d="M228.879 227.608H243.032V244.127H228.879V227.608Z" fill="#DD5539"/>
<path d="M246.648 227.608H260.8V244.127H246.648V227.608Z" fill="#DD5539"/>
<path d="M264.417 227.608H278.569V244.127H264.417V227.608Z" fill="#DD5539"/>
<path d="M282.168 227.608H296.32V244.127H282.168V227.608Z" fill="#DD5539"/>
<path d="M299.937 227.608H314.089V244.127H299.937V227.608Z" fill="#DD5539"/>
<path d="M211.128 250.241H225.28V266.759H211.128V250.241Z" fill="#DD5539"/>
<path d="M228.879 250.241H243.032V266.759H228.879V250.241Z" fill="#DD5539"/>
<path d="M246.648 250.241H260.8V266.759H246.648V250.241Z" fill="#DD5539"/>
<path d="M264.417 250.241H278.569V266.759H264.417V250.241Z" fill="#DD5539"/>
<path d="M282.168 250.241H296.32V266.759H282.168V250.241Z" fill="#DD5539"/>
<path d="M299.937 250.241H314.089V266.759H299.937V250.241Z" fill="#DD5539"/>
<path d="M211.128 272.894H225.28V289.413H211.128V272.894Z" fill="#DD5539"/>
<path d="M228.879 272.894H243.032V289.413H228.879V272.894Z" fill="#DD5539"/>
<path d="M246.648 272.894H260.8V289.413H246.648V272.894Z" fill="#DD5539"/>
<path d="M264.417 272.894H278.569V289.413H264.417V272.894Z" fill="#DD5539"/>
<path d="M282.168 272.894H296.32V289.413H282.168V272.894Z" fill="#DD5539"/>
<path d="M299.937 272.894H314.089V289.413H299.937V272.894Z" fill="#DD5539"/>
</g>
<path d="M693.697 311.98V168.958L754.499 163.145V311.98H693.697Z" fill="#F1863A" stroke="#DD5539" stroke-width="2.1" stroke-miterlimit="10"/>
<mask id="mask22_138_702" style="mask-type:luminance" maskUnits="userSpaceOnUse" x="699" y="182" width="53" height="112">
<path d="M699.183 182.001H751.371V293.145H699.183V182.001Z" fill="white"/>
</mask>
<g mask="url(#mask22_138_702)">
<path d="M699.183 182.001H713.335V198.519H699.183V182.001Z" fill="#DD5539"/>
<path d="M716.934 182.001H731.086V198.519H716.934V182.001Z" fill="#DD5539"/>
<path d="M734.703 182.001H748.855V198.519H734.703V182.001Z" fill="#DD5539"/>
<path d="M699.183 204.655H713.335V221.173H699.183V204.655Z" fill="#DD5539"/>
<path d="M716.934 204.655H731.086V221.173H716.934V204.655Z" fill="#DD5539"/>
<path d="M734.703 204.655H748.855V221.173H734.703V204.655Z" fill="#DD5539"/>
<path d="M699.183 227.287H713.335V243.805H699.183V227.287Z" fill="#DD5539"/>
<path d="M716.934 227.287H731.086V243.805H716.934V227.287Z" fill="#DD5539"/>
<path d="M734.703 227.287H748.855V243.805H734.703V227.287Z" fill="#DD5539"/>
<path d="M699.183 249.94H713.335V266.458H699.183V249.94Z" fill="#DD5539"/>
<path d="M716.934 249.94H731.086V266.458H716.934V249.94Z" fill="#DD5539"/>
<path d="M734.703 249.94H748.855V266.458H734.703V249.94Z" fill="#DD5539"/>
<path d="M699.183 272.594H713.335V289.112H699.183V272.594Z" fill="#DD5539"/>
<path d="M716.934 272.594H731.086V289.112H716.934V272.594Z" fill="#DD5539"/>
<path d="M734.703 272.594H748.855V289.112H734.703V272.594Z" fill="#DD5539"/>
</g>
<path d="M92.2681 191.011H162.05V312.388H92.2681V191.011Z" fill="#F1863A" stroke="#DD5539" stroke-width="2.07" stroke-miterlimit="10"/>
<mask id="mask23_138_702" style="mask-type:luminance" maskUnits="userSpaceOnUse" x="102" y="205" width="53" height="89">
<path d="M102.576 205.427H154.764V293.295H102.576V205.427Z" fill="white"/>
</mask>
<g mask="url(#mask23_138_702)">
<path d="M102.576 205.427H116.729V221.945H102.576V205.427Z" fill="#DD5539"/>
<path d="M120.345 205.427H134.497V221.945H120.345V205.427Z" fill="#DD5539"/>
<path d="M138.114 205.427H152.266V221.945H138.114V205.427Z" fill="#DD5539"/>
<path d="M102.576 228.08H116.729V244.599H102.576V228.08Z" fill="#DD5539"/>
<path d="M120.345 228.08H134.497V244.599H120.345V228.08Z" fill="#DD5539"/>
<path d="M138.114 228.08H152.266V244.599H138.114V228.08Z" fill="#DD5539"/>
<path d="M102.576 250.734H116.729V267.252H102.576V250.734Z" fill="#DD5539"/>
<path d="M120.345 250.734H134.497V267.252H120.345V250.734Z" fill="#DD5539"/>
<path d="M138.114 250.734H152.266V267.252H138.114V250.734Z" fill="#DD5539"/>
<path d="M102.576 273.387H116.729V289.906H102.576V273.387Z" fill="#DD5539"/>
<path d="M120.345 273.387H134.497V289.906H120.345V273.387Z" fill="#DD5539"/>
<path d="M138.114 273.387H152.266V289.906H138.114V273.387Z" fill="#DD5539"/>
</g>
<path d="M392.852 98.8949C403.946 99.1523 415.25 99.281 426.747 99.281C438.243 99.281 449.547 99.1523 460.642 98.8949C456.536 95.484 444.288 86.2595 426.747 86.2595C409.205 86.2595 396.957 95.484 392.852 98.8949Z" fill="#DD5539" stroke="#DD5539" stroke-miterlimit="10"/>
<path d="M423.934 86.4526C423.776 85.1225 423.619 83.8139 423.462 82.4839H431.027C430.852 83.8139 430.66 85.1225 430.486 86.4526H423.916H423.934Z" fill="#DD5539" stroke="#DD5539" stroke-miterlimit="10"/>
<path d="M430.538 78.2793C430.695 79.6093 430.853 80.9179 431.01 82.248C428.494 82.248 425.96 82.248 423.445 82.248C423.619 80.9179 423.811 79.6093 423.986 78.2793H430.555H430.538Z" fill="#DD5539" stroke="#DD5539" stroke-miterlimit="10"/>
<path d="M427.114 78.2793C428.619 78.2793 429.839 75.398 429.839 71.8436C429.839 68.2893 428.619 65.408 427.114 65.408C425.608 65.408 424.388 68.2893 424.388 71.8436C424.388 75.398 425.608 78.2793 427.114 78.2793Z" fill="#DD5539" stroke="#DD5539" stroke-miterlimit="10"/>
<path d="M417.26 128.713C416.089 133.218 416.858 137.23 417.26 138.882H438.156C438.488 136.994 438.924 133.283 437.806 129.164C436.478 124.316 432.722 117.88 427.183 118.073C422.152 118.245 418.535 123.801 417.26 128.713Z" fill="#DD5539"/>
<mask id="mask24_138_702" style="mask-type:luminance" maskUnits="userSpaceOnUse" x="441" y="124" width="47" height="20">
<path d="M441.405 124.702H487.548V143.408H441.405V124.702Z" fill="white"/>
</mask>
<g mask="url(#mask24_138_702)">
<path d="M441.405 124.702H453.426V138.732H441.405V124.702Z" fill="#DD5539"/>
<path d="M457.689 124.702H469.71V138.732H457.689V124.702Z" fill="#DD5539"/>
<path d="M473.973 124.702H485.993V138.732H473.973V124.702Z" fill="#DD5539"/>
</g>
<mask id="mask25_138_702" style="mask-type:luminance" maskUnits="userSpaceOnUse" x="368" y="124" width="48" height="20">
<path d="M368.933 124.552H415.076V143.258H368.933V124.552Z" fill="white"/>
</mask>
<g mask="url(#mask25_138_702)">
<path d="M368.933 124.552H380.953V138.582H368.933V124.552Z" fill="#DD5539"/>
<path d="M385.216 124.552H397.237V138.582H385.216V124.552Z" fill="#DD5539"/>
<path d="M401.5 124.552H413.521V138.582H401.5V124.552Z" fill="#DD5539"/>
</g>
</svg>
