<svg width="197" height="111" viewBox="0 0 197 111" fill="none" xmlns="http://www.w3.org/2000/svg">
<g clip-path="url(#clip0_76_15)">
<path d="M116.721 65.1701C162.565 51.1873 197.67 32.4944 195.131 23.4182C192.592 14.3421 153.37 18.3197 107.525 32.3025C61.6813 46.2852 26.5758 64.9782 29.115 74.0543C31.6541 83.1304 70.8766 79.1528 116.721 65.1701Z" fill="#003F61"/>
<path d="M130.748 71.9782C142.025 49.4171 146.653 28.6671 141.083 25.6319C135.514 22.5966 121.856 38.4255 110.579 60.9866C99.3009 83.5478 94.6734 104.298 100.243 107.333C105.812 110.368 119.47 94.5393 130.748 71.9782Z" fill="#003F61"/>
<path d="M139.311 36.4406C141.18 30.4321 122.137 18.5922 96.7779 9.99533C71.419 1.3985 49.347 -0.699777 47.4786 5.30869C45.6103 11.3172 64.6531 23.1571 90.012 31.7539C115.371 40.3507 137.443 42.449 139.311 36.4406Z" fill="#003F61"/>
<path d="M62.8665 73.5889C64.7559 67.1588 52.7399 57.6063 36.0281 52.2528C19.3163 46.8994 4.23701 47.7722 2.34764 54.2023C0.458271 60.6324 12.4742 70.1849 29.1861 75.5384C45.8979 80.8919 60.9772 80.0191 62.8665 73.5889Z" fill="#003F61"/>
</g>
<defs>
<clipPath id="clip0_76_15">
<rect width="197" height="111" fill="white"/>
</clipPath>
</defs>
</svg>
