<svg width="368" height="379" viewBox="0 0 368 379" fill="none" xmlns="http://www.w3.org/2000/svg">
<g clip-path="url(#clip0_94_2)">
<path d="M102.588 132.277C102.622 169.466 129.034 201.958 141.529 237.391C151.984 267.019 152.603 298.787 149.609 329.754C149.023 335.821 147.886 342.566 142.567 346.323C139.355 348.587 135.173 349.326 131.192 350.204C127.211 351.082 123.063 352.314 120.503 355.178C117.944 358.042 117.994 363.031 121.557 364.818C127.529 362.508 134.387 363.663 140.676 365.11C146.966 366.558 153.523 368.282 159.846 366.973C166.185 365.68 171.956 360.044 170.267 354.408C169.531 351.929 167.54 349.927 166.102 347.694C161.452 340.472 162.907 331.479 164.312 323.225C169.012 295.938 171.756 268.096 167.791 240.717C165.015 221.53 158.943 202.728 157.638 183.417C156.935 173.1 157.604 162.69 156.233 152.419C154.861 142.148 151.181 131.708 143.169 124.301C135.14 116.894 122.059 113.306 111.688 117.802C101.334 122.314 96.6167 136.004 102.588 132.277Z" fill="#EF9666"/>
<path d="M102.588 132.277C102.622 169.466 129.034 201.958 141.529 237.391C151.984 267.019 152.603 298.787 149.609 329.754C149.023 335.821 147.886 342.566 142.567 346.323C139.355 348.587 135.173 349.326 131.192 350.204C127.211 351.082 123.063 352.314 120.503 355.178C117.944 358.042 117.994 363.031 121.557 364.818C127.529 362.508 134.387 363.663 140.676 365.11C146.966 366.558 153.523 368.282 159.846 366.973C166.185 365.68 171.956 360.044 170.267 354.408C169.531 351.929 167.54 349.927 166.102 347.694C161.452 340.472 162.907 331.479 164.312 323.225C169.012 295.938 171.756 268.096 167.791 240.717C165.015 221.53 158.943 202.728 157.638 183.417C156.935 173.1 157.604 162.69 156.233 152.419C154.861 142.148 151.181 131.708 143.169 124.301C135.14 116.894 122.059 113.306 111.688 117.802C101.334 122.314 96.6167 136.004 102.588 132.277Z" fill="#003F61"/>
<path d="M279.596 132.493C272.019 151.803 276.217 173.516 285.417 192.256C294.617 210.997 308.468 227.505 321.063 244.582C333.659 261.66 345.301 279.907 349.148 300.096C351.775 313.862 350.687 327.952 349.132 341.842C348.563 346.878 347.693 352.36 343.578 355.794C339.748 358.981 334.094 359.566 329.644 361.984C325.195 364.402 322.519 370.946 326.935 373.441C331.401 375.982 336.72 371.239 341.989 370.9C345.903 370.654 349.383 372.887 352.828 374.55C356.274 376.213 360.841 377.306 363.868 375.073C367.883 372.117 365.842 366.388 363.952 362.046C358.081 348.525 357.044 333.542 359.469 319.19C362.212 302.96 369.271 287.068 367.799 270.714C366.076 251.512 352.962 234.835 346.321 216.525C338.092 193.858 339.999 169.358 336.971 145.674C336.084 138.683 334.345 131.092 328.273 126.672C322.318 122.345 313.937 122.314 306.31 122.884C299.134 123.407 291.69 124.378 285.719 127.981C279.73 131.584 275.699 138.56 278.091 144.673" fill="#003F61"/>
<path d="M343.745 150.125C348.379 152.804 350.169 158.194 350.119 163.152C350.068 168.111 348.58 172.961 348.228 177.905C347.626 186.328 350.353 194.643 353.681 202.528C357.01 210.412 360.991 218.127 363.099 226.35C361.711 220.313 363.584 214.108 364.989 208.087C366.394 202.066 367.247 195.444 364.069 189.993C362.681 187.621 360.607 185.604 359.402 183.171C356.308 176.934 359.503 169.774 359.503 162.952C359.503 155.422 355.287 148 348.496 143.611C347.191 142.779 345.619 142.009 344.063 142.364C342.039 142.841 341.103 145.12 341.571 146.953C342.039 148.785 343.528 150.248 343.745 150.125Z" fill="#F1863A"/>
<path d="M274.076 155.514C246.175 172.838 214.209 176.796 180.855 171.391C160.582 168.111 141.513 160.55 121.691 155.545C102.973 150.818 83.1345 148.2 66.608 139.007C49.7469 129.629 37.9709 114.137 30.5774 97.5835C23.184 81.0295 19.7716 63.3207 16.4094 45.7505C14.8705 37.743 14.1847 27.826 21.6451 23.2525C26.0444 20.5577 32.1331 20.8657 36.8669 23.0677C41.6007 25.2698 45.1636 29.0733 48.0407 33.1079C56.0364 44.3029 59.5156 57.5769 65.7047 69.6651C69.4516 76.995 74.9382 84.4173 83.4858 86.8658C96.2487 90.5307 109.196 81.4915 117.024 71.7132C124.852 61.9348 131.075 50.2316 142.884 44.5339C150.144 41.023 158.842 40.2068 165.7 36.0645C173.947 31.0752 178.045 22.2516 184.468 15.4298C193.267 6.09805 206.933 0.631406 220.532 1.01638C234.132 1.40136 247.396 7.60715 255.526 17.4163C263.488 27.0099 266.733 39.6833 276.585 47.7369C282.841 52.8494 291.021 55.4826 298.565 58.9166C334.345 75.1933 356.425 112.967 351.022 148.724C349.533 158.625 344.431 169.82 333.625 172.13C325.396 173.885 317.065 169.682 310.542 164.846C304.018 160.011 297.929 154.221 289.867 151.865C281.821 149.524 278.476 151.819 274.076 155.514Z" fill="#F1863A"/>
<path d="M178.53 286.976C185.756 275.411 187.078 261.613 186.593 248.355C186.124 235.096 184.017 221.838 185.121 208.61C186.258 194.736 190.892 180.969 189.219 167.141C186.961 148.523 172.375 131.554 152.921 124.917C145.059 122.237 135.29 121.467 129.051 126.533C124.434 130.275 122.996 136.312 123.23 141.902C124.2 165.739 149.291 182.955 157.42 205.654C165.817 229.075 155.079 254.622 158.357 279.061C160.097 291.996 165.734 304.33 167.256 317.296C168.661 329.384 166.453 341.534 164.245 353.53C163.727 356.348 163.057 359.412 160.649 361.291C157.621 363.663 152.452 363.57 150.428 366.681C148.622 369.453 150.713 373.225 153.857 374.765C157.002 376.305 160.766 376.228 164.345 376.105C170.618 375.889 176.908 375.689 183.18 375.474C186.392 375.366 190.306 374.842 191.477 372.132C192.999 368.59 188.433 365.618 185.79 362.646C182.311 358.75 181.943 353.376 181.708 348.387C180.671 326.289 179.668 304.192 178.53 286.976Z" fill="#F1863A"/>
<path d="M309.17 131.199C303.015 152.065 296.809 173.408 298.548 194.951C299.92 212.044 306.243 228.459 310.408 245.183C319.508 281.786 317.718 321.716 298.047 354.793C295.822 358.535 293.196 362.338 289.064 364.402C286.321 365.772 283.109 366.265 280.332 367.589C277.556 368.898 275.08 371.562 275.783 374.319C276.703 377.937 282.139 378.877 286.103 377.83C290.068 376.783 293.781 374.565 297.913 374.673C302.479 374.796 306.327 377.753 310.743 378.784C315.159 379.831 321.398 376.936 319.892 373.056C319.391 371.762 318.153 370.838 317.149 369.822C312.014 364.571 312.934 356.641 314.155 349.742C316.513 336.376 318.939 322.84 324.911 310.413C330.297 299.218 338.56 288.885 340.718 276.843C342.909 264.508 338.393 252.128 336.452 239.762C332.538 214.8 339.162 189.623 345 164.969C346.74 157.609 348.429 150.079 347.325 142.625C346.221 135.172 341.822 127.688 334.278 124.455C327.955 121.744 319.976 122.514 314.439 126.364C308.903 130.214 306.076 136.974 307.414 143.149" fill="#F1863A"/>
<path d="M25.7935 57.2535C31.0793 56.2063 36.1476 54.0505 40.112 50.7397C44.0764 47.4289 46.8698 42.9016 47.4887 38.0663C47.7731 35.8335 47.6058 33.5082 48.4255 31.3831C49.1782 29.3967 50.7338 27.7336 51.7542 25.8395C52.7913 23.9454 53.2262 21.5278 51.9549 19.7723C53.1258 20.3729 54.648 20.2959 55.8691 19.7723C57.0902 19.2487 58.0771 18.3402 58.8465 17.3393C60.7033 14.9524 61.5731 12.0112 61.8073 9.1008C62.0415 6.19039 61.7069 3.26459 61.6735 0.338778C60.6531 1.84788 58.5956 2.51004 56.6553 2.78722C54.7149 3.0644 52.6909 3.0644 50.8676 3.75735C48.3753 4.69669 46.5855 6.96034 46.3178 9.30099C41.9018 5.66683 35.9971 3.52637 30.0255 3.38778C24.0538 3.24919 18.032 5.09707 13.8 8.96221C13.9673 7.83809 12.9971 6.82175 11.8764 6.29819C10.7724 5.75922 9.50109 5.62063 8.29673 5.28185C5.45309 4.46571 3.02764 2.47924 1.87345 0C1.288 3.80355 0.802909 7.6379 0.451636 11.4569C0.351273 12.6426 0.267636 13.9207 0.92 14.9524C1.57236 15.9842 3.26182 16.5847 4.49964 15.9996C4.49964 15.9688 4.49964 15.938 4.66691 16.1843C2.81018 17.0621 2.15782 19.2795 2.64291 21.112C3.128 22.9445 4.49964 24.469 5.888 25.9011C7.25964 27.3178 8.73164 28.7499 9.46764 30.5054C10.7055 33.4158 9.76873 36.665 9.752 39.7756C9.73527 44.0257 11.5418 48.2604 14.7033 51.4172C17.8982 54.574 22.3978 57.9156 25.7935 57.2535Z" fill="#DCA88E"/>
<path d="M25.4088 57.4074C30.6947 56.3603 35.763 54.2044 39.7274 50.8936C43.6918 47.5828 46.4852 43.0555 47.1041 38.2202C47.3885 35.9874 47.2212 33.6621 48.0408 31.5371C48.7936 29.5506 50.3492 27.8875 51.3696 25.9934C52.4067 24.0994 52.8416 21.6817 51.5703 19.9262C52.7412 20.5268 54.2634 20.4498 55.4845 19.9262C56.7056 19.4027 57.6925 18.4941 58.4619 17.4932C60.3187 15.091 61.1718 12.1497 61.4227 9.23934C61.6736 6.32893 61.3223 3.40312 61.2888 0.47731C60.2685 1.98641 58.211 2.64857 56.2707 2.92575C54.3303 3.20293 52.3063 3.20293 50.483 3.89589C47.9907 4.83522 46.2008 7.09888 45.9332 9.43952C41.5172 5.80536 35.6125 3.6649 29.6408 3.52631C23.6692 3.38772 17.6474 5.2356 13.4154 9.10075C13.5827 7.97662 12.6125 6.96029 11.4918 6.43672C10.371 5.91315 9.09975 5.75916 7.91211 5.43579C5.05175 4.61964 2.64302 2.63317 1.48884 0.153931C0.88666 3.95748 0.418296 7.77643 0.0670233 11.6108C-0.0333404 12.7965 -0.116977 14.0746 0.535387 15.1064C1.18775 16.1381 2.87721 16.7386 4.11502 16.1535C4.11502 16.1227 4.11502 16.0919 4.2823 16.3383C2.42557 17.216 1.77321 19.4335 2.2583 21.2659C2.74339 23.0984 4.13175 24.6383 5.50339 26.055C6.87502 27.4717 8.34702 28.9038 9.08302 30.6593C10.3208 33.5697 9.38411 36.8189 9.36739 39.9295C9.35066 44.1796 11.1572 48.4144 14.3187 51.5712C17.4801 54.728 22.0132 58.0695 25.4088 57.4074Z" fill="url(#paint0_linear_94_2)"/>
<path d="M22.5484 47.9986C28.9412 47.9986 34.1236 39.4152 34.1236 28.8269C34.1236 18.2386 28.9412 9.65515 22.5484 9.65515C16.1555 9.65515 10.9731 18.2386 10.9731 28.8269C10.9731 39.4152 16.1555 47.9986 22.5484 47.9986Z" fill="url(#paint1_linear_94_2)"/>
<path d="M22.9163 47.9986C29.106 47.9986 34.1236 39.4152 34.1236 28.8269C34.1236 18.2386 29.106 9.65515 22.9163 9.65515C16.7267 9.65515 11.7091 18.2386 11.7091 28.8269C11.7091 39.4152 16.7267 47.9986 22.9163 47.9986Z" fill="#EF9666"/>
<path d="M22.9163 47.9986C29.106 47.9986 34.1236 39.4152 34.1236 28.8269C34.1236 18.2386 29.106 9.65515 22.9163 9.65515C16.7267 9.65515 11.7091 18.2386 11.7091 28.8269C11.7091 39.4152 16.7267 47.9986 22.9163 47.9986Z" fill="#DD5539"/>
<path d="M22.5985 43.1788C27.9844 43.1788 32.3505 36.7533 32.3505 28.827C32.3505 20.9006 27.9844 14.4751 22.5985 14.4751C17.2126 14.4751 12.8465 20.9006 12.8465 28.827C12.8465 36.7533 17.2126 43.1788 22.5985 43.1788Z" fill="#DCA88E"/>
<path d="M21.8458 33.462C21.6953 30.5824 21.5615 27.7182 21.4611 24.9926C23.0167 23.3603 24.9905 22.0668 27.1985 21.2506C27.6502 21.0812 28.1185 20.9426 28.5869 20.9272C29.072 20.9272 29.5738 21.0658 29.8749 21.42C30.3265 21.959 30.1091 22.7751 29.5905 23.2525C29.072 23.7299 28.3025 23.9454 27.5833 24.1148C25.4924 24.6076 23.6022 24.931 21.4611 24.9464" fill="#003F61"/>
<path d="M21.8458 33.462C21.6953 30.5824 21.5615 27.7182 21.4611 24.9926C23.0167 23.3603 24.9905 22.0668 27.1985 21.2506C27.6502 21.0812 28.1185 20.9426 28.5869 20.9272C29.072 20.9272 29.5738 21.0658 29.8749 21.42C30.3265 21.959 30.1091 22.7751 29.5905 23.2525C29.072 23.7299 28.3025 23.9454 27.5833 24.1148C25.4924 24.6076 23.6022 24.931 21.4611 24.9464" stroke="#003F61" stroke-width="0.3692" stroke-miterlimit="10"/>
<path d="M21.4444 24.9771C20.6414 24.1764 19.8887 23.622 18.9185 22.9907C17.9484 22.3747 16.6604 21.8511 15.4727 21.8665C15.0044 21.8819 14.5193 21.9589 14.1178 22.2053C13.7331 22.4517 13.4654 22.8675 13.5156 23.2986C13.5658 23.6682 13.8669 23.9916 14.2349 24.1918C14.6029 24.392 15.0211 24.469 15.4225 24.546C17.4633 24.9155 19.6044 24.8693 21.4444 24.9771Z" fill="#003F61"/>
<path d="M21.8458 32.384C21.4276 34.1087 21.2269 35.7718 19.872 36.7727C18.5171 37.7891 16.6102 38.0047 15.088 37.2193C15.8574 38.559 16.7105 39.8679 17.8145 40.9305C18.9185 41.993 20.3236 42.8245 21.8458 43.0401C23.8865 43.3327 25.9942 42.4704 27.5163 41.0691C29.0385 39.6678 30.0422 37.7737 30.7447 35.8642C29.808 36.9267 28.3527 37.5273 26.9476 37.4195C25.5425 37.3117 24.9069 37.1423 23.8029 36.1722C23.1673 35.6024 22.5316 33.9701 21.8458 32.384Z" fill="#003F61"/>
<path d="M48.944 26.5017C50.6531 26.5017 52.0385 25.2538 52.0385 23.7145C52.0385 22.1751 50.6531 20.9272 48.944 20.9272C47.2349 20.9272 45.8495 22.1751 45.8495 23.7145C45.8495 25.2538 47.2349 26.5017 48.944 26.5017Z" fill="#003F61"/>
<path d="M6.15564 23.7144C7.86471 23.7144 9.25019 22.4666 9.25019 20.9272C9.25019 19.3879 7.86471 18.14 6.15564 18.14C4.44657 18.14 3.0611 19.3879 3.0611 20.9272C3.0611 22.4666 4.44657 23.7144 6.15564 23.7144Z" fill="#003F61"/>
<path d="M43.0727 26.0397C43.4407 25.1773 43.5411 24.2534 43.608 23.3448C43.6749 22.4363 43.7251 21.5124 44.0262 20.6346C44.3273 19.7569 44.8793 18.8791 45.7825 18.3402C46.6356 17.832 47.7229 17.6318 48.7433 17.7242C49.7636 17.8012 50.7338 18.14 51.5869 18.5866C51.9884 18.7867 52.3731 19.0331 52.624 19.3565C52.8749 19.6799 52.9753 20.1111 52.7745 20.4806C52.5404 20.9118 51.9549 21.1428 51.3862 21.2198C50.8342 21.2814 50.2654 21.2198 49.6967 21.2506C48.1411 21.3122 46.6524 22.0051 45.5484 22.9445C44.4778 23.8838 43.6916 25.0541 43.0727 26.0397Z" fill="#F1863A"/>
<path d="M42.9556 25.6547C43.4742 24.8385 43.7585 23.9146 44.0262 23.0061C44.2938 22.0975 44.5447 21.1582 44.9964 20.3112C45.448 19.4643 46.1505 18.6943 47.0705 18.3248C47.9404 17.9706 48.944 18.0014 49.8473 18.3094C50.7338 18.6019 51.52 19.1563 52.1891 19.7877C52.4902 20.0803 52.7745 20.4036 52.9251 20.7886C53.0756 21.1736 53.0589 21.6356 52.808 21.9743C52.5069 22.3593 51.9382 22.4825 51.4196 22.4363C50.9011 22.3901 50.416 22.2053 49.9142 22.1129C48.5258 21.8511 47.0538 22.2515 45.8662 22.9907C44.6618 23.7298 43.7251 24.7615 42.9556 25.6547Z" fill="#DD5539"/>
<path d="M11.7091 22.4363C11.0065 21.9744 10.7891 21.0658 10.5382 20.2651C10.1869 19.2026 9.68507 18.1862 8.93234 17.3855C8.17962 16.5847 7.15925 16.015 6.05525 15.938C4.95125 15.8456 3.79707 16.2921 3.0778 17.1699C2.8938 17.4009 2.74325 17.6627 2.69307 17.9552C2.64289 18.2478 2.69307 18.5558 2.87707 18.7714C3.22834 19.1564 3.84725 19.064 4.34907 18.9716C5.78761 18.6944 7.35998 18.6174 8.5978 19.3719C9.86907 20.1419 10.5549 21.728 11.7091 22.4363Z" fill="#F1863A"/>
<path d="M11.4247 22.0822C10.6553 21.728 10.3207 20.9273 9.96944 20.2343C9.48435 19.3104 8.84871 18.448 7.97889 17.7859C7.10908 17.1391 6.0218 16.7079 4.90108 16.7387C3.78035 16.7695 2.65962 17.2623 2.04071 18.1092C1.89017 18.3248 1.75635 18.5866 1.73962 18.8484C1.72289 19.1102 1.80653 19.3874 2.02398 19.5567C2.42544 19.8801 3.02762 19.7415 3.54617 19.6029C4.96798 19.218 6.55708 19.0178 7.89526 19.5875C9.28362 20.1881 10.1534 21.5432 11.4247 22.0822Z" fill="#DD5539"/>
<path d="M52.072 18.2632C52.0218 15.3681 49.9142 12.5963 46.9534 11.4876C48.1411 9.9785 49.4291 8.377 51.336 7.69945C52.6407 7.23748 54.096 7.25288 55.4843 7.06809C56.8727 6.8833 58.3614 6.40593 59.0807 5.328C57.3076 7.82264 58.6291 11.195 57.6756 14.0438C56.8727 16.3999 54.3302 18.2016 52.072 18.2632Z" fill="#DD5539"/>
<path d="M11.7091 10.5791C8.91564 11.0872 6.37309 12.6579 4.86764 14.8292C3.46255 14.7368 2.47564 13.4433 2.30836 12.1805C2.14109 10.9178 2.576 9.67051 2.86036 8.42319C3.14473 7.17587 3.26182 5.80536 2.55927 4.71204C2.944 5.77457 4.21527 6.35973 5.41964 6.60611C6.624 6.8525 7.912 6.8525 9.04946 7.29907C10.5716 7.89963 11.6756 9.28554 11.7091 10.5791Z" fill="#DD5539"/>
</g>
<defs>
<linearGradient id="paint0_linear_94_2" x1="24.712" y1="2.01367" x2="52.608" y2="64.4549" gradientUnits="userSpaceOnUse">
<stop stop-color="#F1863A"/>
<stop offset="0.2048" stop-color="#F1863B"/>
<stop offset="1" stop-color="#FFCFAD"/>
</linearGradient>
<linearGradient id="paint1_linear_94_2" x1="34.7981" y1="33.4238" x2="9.31099" y2="22.1153" gradientUnits="userSpaceOnUse">
<stop stop-color="#3C395F"/>
<stop offset="0.1192" stop-color="#453F62"/>
<stop offset="0.3102" stop-color="#5C4F68"/>
<stop offset="0.5491" stop-color="#826A74"/>
<stop offset="0.8239" stop-color="#B78E83"/>
<stop offset="1" stop-color="#DCA88E"/>
</linearGradient>
<clipPath id="clip0_94_2">
<rect width="368" height="379" fill="white"/>
</clipPath>
</defs>
</svg>
