<svg width="183" height="201" viewBox="0 0 183 201" fill="none" xmlns="http://www.w3.org/2000/svg">
<g clip-path="url(#clip0_94_34)">
<path d="M82.4498 201V131.002V80.8766H100.55V201H82.4498Z" fill="#003F61"/>
<path d="M52.8084 104.148C76.6062 95.244 94.6678 85.3431 93.1501 82.0336C91.6324 78.7241 71.1102 83.2594 47.3124 92.1634C23.5146 101.067 5.45297 110.968 6.97064 114.278C8.48831 117.587 29.0106 113.052 52.8084 104.148Z" fill="#003F61"/>
<path d="M46.639 89.1238C72.397 89.1238 93.2779 86.22 93.2779 82.638C93.2779 79.0559 72.397 76.1521 46.639 76.1521C20.881 76.1521 0 79.0559 0 82.638C0 86.22 20.881 89.1238 46.639 89.1238Z" fill="#003F61"/>
<path d="M93.1423 83.2511C94.66 79.9416 76.5984 70.0407 52.8006 61.1367C29.0028 52.2328 8.4805 47.6975 6.96283 51.007C5.44516 54.3164 23.5068 64.2174 47.3046 73.1213C71.1024 82.0253 91.6246 86.5605 93.1423 83.2511Z" fill="#003F61"/>
<path d="M92.7346 83.7777C95.5387 81.2449 83.047 65.855 64.8335 49.4035C46.6201 32.952 29.5819 21.6687 26.7778 24.2016C23.9736 26.7344 36.4654 42.1243 54.6788 58.5758C72.8923 75.0273 89.9305 86.3106 92.7346 83.7777Z" fill="#003F61"/>
<path d="M92.1838 84.1346C95.8477 82.7638 90.8268 64.2269 80.9692 42.7312C71.1116 21.2356 60.1503 4.9213 56.4864 6.29215C52.8225 7.663 57.8434 26.1999 67.701 47.6955C77.5586 69.1911 88.5199 85.5055 92.1838 84.1346Z" fill="#003F61"/>
<path d="M91.4885 84.2542C95.4542 84.2542 98.669 65.3933 98.669 42.1271C98.669 18.861 95.4542 0 91.4885 0C87.5228 0 84.308 18.861 84.308 42.1271C84.308 65.3933 87.5228 84.2542 91.4885 84.2542Z" fill="#003F61"/>
<path d="M115.296 47.6787C125.153 26.1831 130.174 7.64615 126.51 6.2753C122.847 4.90445 111.885 21.2188 102.028 42.7144C92.1701 64.21 87.1491 82.7469 90.813 84.1178C94.4769 85.4886 105.438 69.1743 115.296 47.6787Z" fill="#003F61"/>
<path d="M128.287 58.5748C146.5 42.1233 158.992 26.7334 156.188 24.2006C153.383 21.6677 136.345 32.951 118.132 49.4025C99.9184 65.854 87.4266 81.2438 90.2308 83.7767C93.0349 86.3096 110.073 75.0263 128.287 58.5748Z" fill="#003F61"/>
<path d="M135.696 73.1329C159.493 64.229 177.555 54.3281 176.037 51.0186C174.52 47.7091 153.997 52.2444 130.2 61.1483C106.402 70.0523 88.3402 79.9532 89.8578 83.2627C91.3755 86.5721 111.898 82.0369 135.696 73.1329Z" fill="#003F61"/>
<path d="M136.361 89.1238C162.119 89.1238 183 86.22 183 82.638C183 79.0559 162.119 76.1521 136.361 76.1521C110.603 76.1521 89.722 79.0559 89.722 82.638C89.722 86.22 110.603 89.1238 136.361 89.1238Z" fill="#003F61"/>
<path d="M176.045 114.284C177.562 110.975 159.501 101.074 135.703 92.1699C111.905 83.2659 91.383 78.7307 89.8653 82.0402C88.3476 85.3496 106.409 95.2506 130.207 104.155C154.005 113.058 174.527 117.594 176.045 114.284Z" fill="#003F61"/>
<path d="M66.3049 92.2137C68.4992 91.0921 69.6913 89.2462 68.9675 88.0909C68.2436 86.9355 65.878 86.9082 63.6837 88.0298C61.4894 89.1514 60.2974 90.9973 61.0212 92.1526C61.745 93.308 64.1106 93.3353 66.3049 92.2137Z" fill="#DD5539"/>
<path d="M63.8978 80.3179C66.4184 80.258 68.4304 79.1336 68.3917 77.8064C68.3531 76.4793 66.2784 75.452 63.7578 75.5119C61.2373 75.5718 59.2253 76.6962 59.264 78.0234C59.3026 79.3505 61.3773 80.3778 63.8978 80.3179Z" fill="#DD5539"/>
<path d="M73.2211 68.4752C73.8768 67.287 72.5789 65.5002 70.3224 64.4843C68.0658 63.4683 65.705 63.6079 65.0493 64.7961C64.3937 65.9842 65.6915 67.771 67.9481 68.7869C70.2047 69.8029 72.5655 69.6633 73.2211 68.4752Z" fill="#DD5539"/>
<path d="M82.3332 62.3104C83.5297 61.5394 83.3125 59.4114 81.8482 57.5573C80.3838 55.7033 78.2267 54.8253 77.0302 55.5964C75.8337 56.3674 76.0509 58.4954 77.5153 60.3495C78.9797 62.2035 81.1367 63.0814 82.3332 62.3104Z" fill="#DD5539"/>
<path d="M93.5708 60.6993C95.0279 60.5259 95.9421 58.555 95.6129 56.2972C95.2836 54.0394 93.8355 52.3496 92.3784 52.523C90.9213 52.6964 90.007 54.6672 90.3363 56.9251C90.6656 59.1829 92.1137 60.8727 93.5708 60.6993Z" fill="#DD5539"/>
<path d="M108.442 61.0549C109.324 58.9216 108.924 56.8155 107.547 56.3507C106.171 55.886 104.339 57.2385 103.456 59.3718C102.574 61.505 102.974 63.6111 104.351 64.0759C105.727 64.5407 107.559 63.1881 108.442 61.0549Z" fill="#DD5539"/>
<path d="M117.298 70.6708C119.187 69.1615 119.928 67.1321 118.954 66.1379C117.98 65.1437 115.659 65.5613 113.771 67.0705C111.883 68.5797 111.142 70.6092 112.116 71.6034C113.09 72.5976 115.41 72.18 117.298 70.6708Z" fill="#DD5539"/>
<path d="M120.09 82.9231C122.542 82.3913 124.251 80.9138 123.908 79.6231C123.565 78.3323 121.299 77.717 118.848 78.2488C116.396 78.7806 114.687 80.258 115.03 81.5488C115.373 82.8396 117.639 83.4548 120.09 82.9231Z" fill="#DD5539"/>
</g>
<defs>
<clipPath id="clip0_94_34">
<rect width="183" height="201" fill="white"/>
</clipPath>
</defs>
</svg>
