<svg width="173" height="242" viewBox="0 0 173 242" fill="none" xmlns="http://www.w3.org/2000/svg">
<g clip-path="url(#clip0_76_2)">
<path d="M173.621 191.597H0V242.401H173.621V191.597Z" fill="#DD5539"/>
<path d="M140.952 200.507H35.4888V15.5778H140.952V186.052V200.507Z" stroke="#F1863A" stroke-width="17.2476" stroke-miterlimit="10" stroke-linecap="round"/>
<path d="M28.8784 18.0458L29.5474 29.2003L41.239 29.6811L41.908 39.5374L29.2129 40.1784V51.3329L41.3983 50.211L41.7328 60.2276L29.2129 61.3494V72.3436H41.3983L41.908 81.5588L29.2129 82.5204L29.0537 95.1333H41.0638L42.0673 104.99L29.2129 104.188L29.5474 115.166L41.7328 115.823L41.908 126L28.7192 127.459L29.2129 137.155L41.3983 137.635L41.7328 148.63L28.5439 147.812L29.2129 157.845L41.7328 158.326L42.0673 169.32L29.2129 168.503L28.8784 178.359L41.7328 178.856L42.2425 187.574L29.7227 187.093L28.7192 195.331H41.5735L42.0673 205.684L53.7588 205.844L52.9146 195.988L62.7585 195.331L63.9372 205.027L75.4535 205.508L75.119 195.171L86.4602 194.69L87.3044 205.844L98.4862 205.347L99.3145 195.651L110.672 194.85L112.503 205.347L124.513 205.684L124.848 195.812L135.695 195.171L136.874 206.004H148.725" stroke="#DD5539" stroke-width="0.4928" stroke-miterlimit="10"/>
<path d="M148.343 205.636V195.972L135.52 196.405V185.282L148.47 185.042L148.343 172.83L135.52 173.423L135.759 161.627L148.343 161.996L148.502 150.569L135.52 151.162L135.759 138.998H148.343L148.868 129.558L135.759 129.638V120.279L148.725 120.038V109.781L135.6 109.926L135.456 99.829L148.725 99.5245L148.566 90.742L135.456 91.1747L135.6 82.841L148.566 81.8153L148.422 72.4398L135.297 73.161L135.456 63.9457L148.725 63.2085V53.1118L135.456 53.6888L135.743 43.8806L148.725 43.5921L148.566 34.7935L135.743 34.3608V23.5269L148.279 22.6455L148.566 11.507L135.297 11.8115L123.813 22.341V11.8115L113.539 11.3628L113.236 22.9339L101.608 22.6455L101.306 11.507L89.6778 11.3628V22.7897H79.5472L79.2446 11.9558L69.2574 11.3628L69.8467 22.6455L60.0029 22.5012L57.7729 11.2186H47.6423L48.0883 22.5012L40.1878 22.6455V11.507L29.1493 11.3628L29.4519 22.5012" stroke="#DD5539" stroke-width="0.4928" stroke-miterlimit="10"/>
</g>
<defs>
<clipPath id="clip0_76_2">
<rect width="173" height="242" fill="white"/>
</clipPath>
</defs>
</svg>
