<svg fill="none" height="276" viewBox="0 0 125 276" width="125" xmlns="http://www.w3.org/2000/svg" xmlns:xlink="http://www.w3.org/1999/xlink"><clipPath id="a"><path d="m0 0h125v276h-125z"/></clipPath><g clip-path="url(#a)"><path d="m11.2708 24.3907h-11.2708v274.4363h11.2708z" fill="#E76044"/><path d="m11.3333 300.391v-276.0003l56.8334 26.818 56.8333 23.1227v226.0596z" fill="#E76044"/><path d="m0 300.391v-276.0003l56.8333 26.818 56.8337 23.1227v226.0596z" fill="#E2583C"/><g fill="#E76044"><path d="m84.6667 98.2974h-16.5v18.2316h16.5z"/><path d="m38.4375 98.2974h-16.5v18.2316h16.5z"/><path d="m84.6667 130.942h-16.5v18.231h16.5z"/><path d="m84.6667 161.609h-16.5v18.231h16.5z"/><path d="m84.6667 195.204h-16.5v18.231h16.5z"/><path d="m38.4375 130.942h-16.5v18.231h16.5z"/><path d="m38.4375 162.391h-16.5v18.231h16.5z"/><path d="m38.4375 195.204h-16.5v18.231h16.5z"/></g></g></svg>