<svg width="322" height="358" viewBox="0 0 322 358" fill="none" xmlns="http://www.w3.org/2000/svg">
<path d="M132.208 154.315L227.501 330.875" stroke="#F1863A" stroke-width="21.4718" stroke-miterlimit="10" stroke-linecap="round"/>
<path d="M132.208 154.315L56.9814 330.875" stroke="#F1863A" stroke-width="21.4718" stroke-miterlimit="10" stroke-linecap="round"/>
<path d="M132.208 164.436C137.637 164.436 142.038 159.905 142.038 154.315C142.038 148.726 137.637 144.194 132.208 144.194C126.78 144.194 122.379 148.726 122.379 154.315C122.379 159.905 126.78 164.436 132.208 164.436Z" fill="#DD5539"/>
<path d="M132.208 154.315H185.413" stroke="white" stroke-width="11.3707" stroke-miterlimit="10" stroke-linecap="round"/>
<path d="M161.241 153.303L106.7 284.554" stroke="white" stroke-width="2.9923" stroke-miterlimit="10"/>
<path d="M161.619 153.481L59.325 254.538" stroke="white" stroke-width="2.9923" stroke-miterlimit="10"/>
<path d="M161.91 153.771L27.4253 209.258" stroke="white" stroke-width="2.9923" stroke-miterlimit="10"/>
<path d="M162.045 154.156L15.8624 155.618" stroke="white" stroke-width="2.9923" stroke-miterlimit="10"/>
<path d="M162.036 154.559L26.3988 101.771" stroke="white" stroke-width="2.9923" stroke-miterlimit="10"/>
<path d="M161.861 154.924L57.4269 55.9377" stroke="white" stroke-width="2.9923" stroke-miterlimit="10"/>
<path d="M161.551 155.196L104.211 25.0694" stroke="white" stroke-width="2.9923" stroke-miterlimit="10"/>
<path d="M161.154 155.336L159.644 13.8803" stroke="white" stroke-width="2.9923" stroke-miterlimit="10"/>
<path d="M160.738 155.318L215.289 24.0761" stroke="white" stroke-width="2.9923" stroke-miterlimit="10"/>
<path d="M160.36 155.149L262.664 54.0916" stroke="white" stroke-width="2.9923" stroke-miterlimit="10"/>
<path d="M160.079 154.859L294.554 99.3725" stroke="white" stroke-width="2.9923" stroke-miterlimit="10"/>
<path d="M159.934 154.474L306.117 153.012" stroke="white" stroke-width="2.9923" stroke-miterlimit="10"/>
<path d="M159.953 154.071L295.58 206.849" stroke="white" stroke-width="2.9923" stroke-miterlimit="10"/>
<path d="M160.128 153.706L264.562 252.692" stroke="white" stroke-width="2.9923" stroke-miterlimit="10"/>
<path d="M160.438 153.434L217.768 283.561" stroke="white" stroke-width="2.9923" stroke-miterlimit="10"/>
<path d="M160.825 153.294L162.336 294.75" stroke="white" stroke-width="2.9923" stroke-miterlimit="10"/>
<path d="M160.99 294.843C240.826 294.843 305.545 231.927 305.545 154.315C305.545 76.7034 240.826 13.7867 160.99 13.7867C81.1536 13.7867 16.4337 76.7034 16.4337 154.315C16.4337 231.927 81.1536 294.843 160.99 294.843Z" stroke="white" stroke-width="4.7121" stroke-miterlimit="10"/>
<path d="M187.96 154.315L280.706 346" stroke="#F1863A" stroke-width="22.0704" stroke-miterlimit="10" stroke-linecap="round"/>
<path d="M187.96 154.315L114.757 346" stroke="#F1863A" stroke-width="22.0704" stroke-miterlimit="10" stroke-linecap="round"/>
<path d="M187.098 165.87C192.356 165.87 196.618 161.359 196.618 155.796C196.618 150.232 192.356 145.722 187.098 145.722C181.841 145.722 177.579 150.232 177.579 155.796C177.579 161.359 181.841 165.87 187.098 165.87Z" fill="#DD5539"/>
<path d="M105.199 299.36C108.911 299.36 111.92 296.356 111.92 292.651C111.92 288.945 108.911 285.941 105.199 285.941C101.487 285.941 98.4781 288.945 98.4781 292.651C98.4781 296.356 101.487 299.36 105.199 299.36Z" fill="#F1863A"/>
<path d="M61.5418 264.068C63.0074 260.645 61.4154 256.755 57.986 255.38C54.5567 254.006 50.5886 255.667 49.1231 259.091C47.6575 262.514 49.2495 266.404 52.6789 267.779C56.1082 269.153 60.0763 267.492 61.5418 264.068Z" fill="#F1863A"/>
<path d="M26.2856 218.989C28.9934 216.369 29.0609 212.186 26.4362 209.646C23.8116 207.107 19.4888 207.172 16.781 209.792C14.0732 212.412 14.0057 216.595 16.6304 219.135C19.255 221.675 23.5778 221.61 26.2856 218.989Z" fill="#F1863A"/>
<path d="M11.5503 164.299C15.0884 162.881 16.805 159.041 15.3845 155.723C13.964 152.405 9.94426 150.864 6.40621 152.282C2.86816 153.7 1.15155 157.54 2.57206 160.859C3.99257 164.177 8.01228 165.718 11.5503 164.299Z" fill="#F1863A"/>
<path d="M19.5617 108.313C23.3912 108.313 26.4956 105.401 26.4956 101.809C26.4956 98.2172 23.3912 95.3055 19.5617 95.3055C15.7322 95.3055 12.6278 98.2172 12.6278 101.809C12.6278 105.401 15.7322 108.313 19.5617 108.313Z" fill="#F1863A"/>
<path d="M58.0859 56.1109C59.5064 52.7924 57.7898 48.9527 54.2517 47.5345C50.7137 46.1164 46.694 47.6569 45.2735 50.9753C43.853 54.2938 45.5696 58.1336 49.1076 59.5517C52.6457 60.9699 56.6654 59.4294 58.0859 56.1109Z" fill="#F1863A"/>
<path d="M105.334 25.5857C107.959 23.046 107.891 18.8629 105.183 16.2427C102.476 13.6224 98.1528 13.5571 95.5282 16.0969C92.9036 18.6366 92.971 22.8197 95.6788 25.4399C98.3866 28.0602 102.709 28.1255 105.334 25.5857Z" fill="#F1863A"/>
<path d="M161.061 14.8871C164.49 13.5125 166.082 9.62275 164.617 6.19909C163.151 2.77544 159.183 1.11434 155.754 2.48892C152.324 3.8635 150.732 7.75323 152.198 11.1769C153.663 14.6005 157.632 16.2616 161.061 14.8871Z" fill="#F1863A"/>
<path d="M216.78 25.6411C220.492 25.6411 223.501 22.6371 223.501 18.9314C223.501 15.2258 220.492 12.2217 216.78 12.2217C213.068 12.2217 210.059 15.2258 210.059 18.9314C210.059 22.6371 213.068 25.6411 216.78 25.6411Z" fill="#F1863A"/>
<path d="M272.869 52.494C274.334 49.0704 272.742 45.1807 269.313 43.8061C265.884 42.4315 261.916 44.0926 260.45 47.5163C258.985 50.9399 260.577 54.8296 264.006 56.2042C267.435 57.5788 271.403 55.9177 272.869 52.494Z" fill="#F1863A"/>
<path d="M305.2 101.787C307.908 99.1664 307.975 94.9834 305.351 92.4437C302.726 89.9039 298.403 89.9692 295.695 92.5894C292.988 95.2097 292.92 99.3927 295.545 101.932C298.169 104.472 302.492 104.407 305.2 101.787Z" fill="#F1863A"/>
<path d="M315.594 159.299C319.132 157.881 320.848 154.041 319.428 150.723C318.007 147.404 313.988 145.864 310.45 147.282C306.912 148.7 305.195 152.54 306.616 155.858C308.036 159.177 312.056 160.717 315.594 159.299Z" fill="#F1863A"/>
<path d="M302.427 216.276C306.257 216.276 309.361 213.365 309.361 209.773C309.361 206.181 306.257 203.269 302.427 203.269C298.598 203.269 295.493 206.181 295.493 209.773C295.493 213.365 298.598 216.276 302.427 216.276Z" fill="#F1863A"/>
<path d="M276.731 260.606C278.152 257.287 276.435 253.447 272.897 252.029C269.359 250.611 265.339 252.151 263.919 255.47C262.498 258.788 264.215 262.628 267.753 264.046C271.291 265.464 275.311 263.924 276.731 260.606Z" fill="#F1863A"/>
<path d="M226.453 295.482C229.077 292.942 229.01 288.759 226.302 286.139C223.594 283.519 219.271 283.453 216.647 285.993C214.022 288.533 214.09 292.716 216.797 295.336C219.505 297.956 223.828 298.022 226.453 295.482Z" fill="#F1863A"/>
<path d="M166.238 309.096C169.667 307.721 171.259 303.832 169.793 300.408C168.328 296.984 164.36 295.323 160.93 296.698C157.501 298.073 155.909 301.962 157.375 305.386C158.84 308.81 162.808 310.471 166.238 309.096Z" fill="#F1863A"/>
</svg>
